<svg width="151" height="77" viewBox="0 0 151 77" fill="none" xmlns="http://www.w3.org/2000/svg">
<path d="M61.6668 45.3333H83.3335V57H86.6668V45.3333C86.6668 43.495 85.1718 42 83.3335 42H61.6668C59.8285 42 58.3335 43.495 58.3335 45.3333V65.3333C58.3335 67.1717 59.8285 68.6667 61.6668 68.6667H75.0002V65.3333H61.6668V45.3333Z" fill="#E5E5E5"/>
<path d="M68.3335 55.3333L63.3335 62H81.6668L75.0002 52L70.0002 58.6667L68.3335 55.3333Z" fill="#E5E5E5"/>
<path d="M86.6668 60.3333H83.3335V65.3333H78.3335V68.6667H83.3335V73.6667H86.6668V68.6667H91.6668V65.3333H86.6668V60.3333Z" fill="#E5E5E5"/>
<rect x="55.25" y="37.25" width="39.5" height="39.5" stroke="white" stroke-width="0.5"/>
<path d="M8.46387 14.0205H3.50684L2.46973 17H0.158203L4.99219 4.20312H6.9873L11.8301 17H9.50977L8.46387 14.0205ZM4.13086 12.2275H7.83984L5.98535 6.91895L4.13086 12.2275ZM14.6426 7.49023L14.7041 8.58887C15.4072 7.73926 16.3301 7.31445 17.4727 7.31445C19.4531 7.31445 20.4609 8.44824 20.4961 10.7158V17H18.3604V10.8389C18.3604 10.2354 18.2285 9.79004 17.9648 9.50293C17.707 9.20996 17.2822 9.06348 16.6904 9.06348C15.8291 9.06348 15.1875 9.45312 14.7656 10.2324V17H12.6299V7.49023H14.6426ZM19.8281 3.69336C19.8281 4.33789 19.6406 4.87402 19.2656 5.30176C18.8965 5.72949 18.4307 5.94336 17.8682 5.94336C17.6396 5.94336 17.4404 5.91992 17.2705 5.87305C17.1064 5.82031 16.8691 5.70605 16.5586 5.53027C16.2539 5.35449 16.0371 5.24902 15.9082 5.21387C15.7852 5.17871 15.6475 5.16113 15.4951 5.16113C15.2725 5.16113 15.082 5.24609 14.9238 5.41602C14.7715 5.58008 14.6953 5.79687 14.6953 6.06641L13.3857 5.99609C13.3857 5.35156 13.5703 4.80957 13.9395 4.37012C14.3145 3.93066 14.7803 3.71094 15.3369 3.71094C15.6709 3.71094 16.0723 3.84277 16.541 4.10645C17.0156 4.37012 17.4053 4.50195 17.71 4.50195C17.9326 4.50195 18.123 4.41992 18.2812 4.25586C18.4395 4.08594 18.5186 3.86328 18.5186 3.58789L19.8281 3.69336ZM28.3623 17C28.2686 16.8184 28.1865 16.5225 28.1162 16.1123C27.4365 16.8213 26.6045 17.1758 25.6201 17.1758C24.665 17.1758 23.8857 16.9033 23.2822 16.3584C22.6787 15.8135 22.377 15.1396 22.377 14.3369C22.377 13.3232 22.752 12.5469 23.502 12.0078C24.2578 11.4629 25.3359 11.1904 26.7363 11.1904H28.0459V10.5664C28.0459 10.0742 27.9082 9.68164 27.6328 9.38867C27.3574 9.08984 26.9385 8.94043 26.376 8.94043C25.8896 8.94043 25.4912 9.06348 25.1807 9.30957C24.8701 9.5498 24.7148 9.85742 24.7148 10.2324H22.5791C22.5791 9.71094 22.752 9.22461 23.0977 8.77344C23.4434 8.31641 23.9121 7.95898 24.5039 7.70117C25.1016 7.44336 25.7666 7.31445 26.499 7.31445C27.6123 7.31445 28.5 7.5957 29.1621 8.1582C29.8242 8.71484 30.1641 9.5 30.1816 10.5137V14.8027C30.1816 15.6582 30.3018 16.3408 30.542 16.8506V17H28.3623ZM26.0156 15.4619C26.4375 15.4619 26.833 15.3594 27.2021 15.1543C27.5771 14.9492 27.8584 14.6738 28.0459 14.3281V12.5352H26.8945C26.1035 12.5352 25.5088 12.6729 25.1104 12.9482C24.7119 13.2236 24.5127 13.6133 24.5127 14.1172C24.5127 14.5273 24.6475 14.8555 24.917 15.1016C25.1924 15.3418 25.5586 15.4619 26.0156 15.4619ZM32.0186 12.1748C32.0186 10.71 32.3584 9.53516 33.0381 8.65039C33.7178 7.75977 34.6289 7.31445 35.7715 7.31445C36.7793 7.31445 37.5938 7.66602 38.2148 8.36914V3.5H40.3506V17H38.417L38.3115 16.0156C37.6729 16.7891 36.8203 17.1758 35.7539 17.1758C34.6406 17.1758 33.7383 16.7275 33.0469 15.8311C32.3613 14.9346 32.0186 13.7158 32.0186 12.1748ZM34.1543 12.3594C34.1543 13.3262 34.3389 14.082 34.708 14.627C35.083 15.166 35.6133 15.4355 36.2988 15.4355C37.1719 15.4355 37.8105 15.0459 38.2148 14.2666V10.2061C37.8223 9.44434 37.1895 9.06348 36.3164 9.06348C35.625 9.06348 35.0918 9.33887 34.7168 9.88965C34.3418 10.4346 34.1543 11.2578 34.1543 12.3594ZM46.7666 17.1758C45.4131 17.1758 44.3145 16.751 43.4707 15.9014C42.6328 15.0459 42.2139 13.9092 42.2139 12.4912V12.2275C42.2139 11.2783 42.3955 10.4316 42.7588 9.6875C43.1279 8.9375 43.6436 8.35449 44.3057 7.93848C44.9678 7.52246 45.7061 7.31445 46.5205 7.31445C47.8154 7.31445 48.8145 7.72754 49.5176 8.55371C50.2266 9.37988 50.5811 10.5488 50.5811 12.0605V12.9219H44.3672C44.4316 13.707 44.6924 14.3281 45.1494 14.7852C45.6123 15.2422 46.1924 15.4707 46.8896 15.4707C47.8682 15.4707 48.665 15.0752 49.2803 14.2842L50.4316 15.3828C50.0508 15.9512 49.541 16.3936 48.9023 16.71C48.2695 17.0205 47.5576 17.1758 46.7666 17.1758ZM46.5117 9.02832C45.9258 9.02832 45.4512 9.2334 45.0879 9.64355C44.7305 10.0537 44.502 10.625 44.4023 11.3574H48.4717V11.1992C48.4248 10.4844 48.2344 9.94531 47.9004 9.58203C47.5664 9.21289 47.1035 9.02832 46.5117 9.02832ZM62.4902 16.0684C61.8633 16.8066 60.9727 17.1758 59.8184 17.1758C58.7871 17.1758 58.0049 16.874 57.4717 16.2705C56.9443 15.667 56.6807 14.7939 56.6807 13.6514V7.49023H58.8164V13.625C58.8164 14.832 59.3174 15.4355 60.3193 15.4355C61.3564 15.4355 62.0566 15.0635 62.4199 14.3193V7.49023H64.5557V17H62.543L62.4902 16.0684ZM68.7129 7.49023L68.7744 8.58887C69.4775 7.73926 70.4004 7.31445 71.543 7.31445C73.5234 7.31445 74.5312 8.44824 74.5664 10.7158V17H72.4307V10.8389C72.4307 10.2354 72.2988 9.79004 72.0352 9.50293C71.7773 9.20996 71.3525 9.06348 70.7607 9.06348C69.8994 9.06348 69.2578 9.45312 68.8359 10.2324V17H66.7002V7.49023H68.7129ZM82.4326 17C82.3389 16.8184 82.2568 16.5225 82.1865 16.1123C81.5068 16.8213 80.6748 17.1758 79.6904 17.1758C78.7354 17.1758 77.9561 16.9033 77.3525 16.3584C76.749 15.8135 76.4473 15.1396 76.4473 14.3369C76.4473 13.3232 76.8223 12.5469 77.5723 12.0078C78.3281 11.4629 79.4062 11.1904 80.8066 11.1904H82.1162V10.5664C82.1162 10.0742 81.9785 9.68164 81.7031 9.38867C81.4277 9.08984 81.0088 8.94043 80.4463 8.94043C79.96 8.94043 79.5615 9.06348 79.251 9.30957C78.9404 9.5498 78.7852 9.85742 78.7852 10.2324H76.6494C76.6494 9.71094 76.8223 9.22461 77.168 8.77344C77.5137 8.31641 77.9824 7.95898 78.5742 7.70117C79.1719 7.44336 79.8369 7.31445 80.5693 7.31445C81.6826 7.31445 82.5703 7.5957 83.2324 8.1582C83.8945 8.71484 84.2344 9.5 84.252 10.5137V14.8027C84.252 15.6582 84.3721 16.3408 84.6123 16.8506V17H82.4326ZM80.0859 15.4619C80.5078 15.4619 80.9033 15.3594 81.2725 15.1543C81.6475 14.9492 81.9287 14.6738 82.1162 14.3281V12.5352H80.9648C80.1738 12.5352 79.5791 12.6729 79.1807 12.9482C78.7822 13.2236 78.583 13.6133 78.583 14.1172C78.583 14.5273 78.7178 14.8555 78.9873 15.1016C79.2627 15.3418 79.6289 15.4619 80.0859 15.4619ZM93.2432 17H91.1074V7.49023H93.2432V17ZM90.9756 5.02051C90.9756 4.69238 91.0781 4.41992 91.2832 4.20312C91.4941 3.98633 91.793 3.87793 92.1797 3.87793C92.5664 3.87793 92.8652 3.98633 93.0762 4.20312C93.2871 4.41992 93.3926 4.69238 93.3926 5.02051C93.3926 5.34277 93.2871 5.6123 93.0762 5.8291C92.8652 6.04004 92.5664 6.14551 92.1797 6.14551C91.793 6.14551 91.4941 6.04004 91.2832 5.8291C91.0781 5.6123 90.9756 5.34277 90.9756 5.02051ZM97.585 7.49023L97.6465 8.4834C98.3145 7.7041 99.2285 7.31445 100.389 7.31445C101.66 7.31445 102.53 7.80078 102.999 8.77344C103.69 7.80078 104.663 7.31445 105.917 7.31445C106.966 7.31445 107.745 7.60449 108.255 8.18457C108.771 8.76465 109.034 9.62012 109.046 10.751V17H106.91V10.8125C106.91 10.209 106.778 9.7666 106.515 9.48535C106.251 9.2041 105.814 9.06348 105.205 9.06348C104.719 9.06348 104.32 9.19531 104.01 9.45898C103.705 9.7168 103.491 10.0566 103.368 10.4785L103.377 17H101.241V10.7422C101.212 9.62305 100.641 9.06348 99.5273 9.06348C98.6719 9.06348 98.0654 9.41211 97.708 10.1094V17H95.5723V7.49023H97.585ZM116.921 17C116.827 16.8184 116.745 16.5225 116.675 16.1123C115.995 16.8213 115.163 17.1758 114.179 17.1758C113.224 17.1758 112.444 16.9033 111.841 16.3584C111.237 15.8135 110.936 15.1396 110.936 14.3369C110.936 13.3232 111.311 12.5469 112.061 12.0078C112.816 11.4629 113.895 11.1904 115.295 11.1904H116.604V10.5664C116.604 10.0742 116.467 9.68164 116.191 9.38867C115.916 9.08984 115.497 8.94043 114.935 8.94043C114.448 8.94043 114.05 9.06348 113.739 9.30957C113.429 9.5498 113.273 9.85742 113.273 10.2324H111.138C111.138 9.71094 111.311 9.22461 111.656 8.77344C112.002 8.31641 112.471 7.95898 113.062 7.70117C113.66 7.44336 114.325 7.31445 115.058 7.31445C116.171 7.31445 117.059 7.5957 117.721 8.1582C118.383 8.71484 118.723 9.5 118.74 10.5137V14.8027C118.74 15.6582 118.86 16.3408 119.101 16.8506V17H116.921ZM114.574 15.4619C114.996 15.4619 115.392 15.3594 115.761 15.1543C116.136 14.9492 116.417 14.6738 116.604 14.3281V12.5352H115.453C114.662 12.5352 114.067 12.6729 113.669 12.9482C113.271 13.2236 113.071 13.6133 113.071 14.1172C113.071 14.5273 113.206 14.8555 113.476 15.1016C113.751 15.3418 114.117 15.4619 114.574 15.4619ZM120.604 12.1748C120.604 10.6982 120.949 9.52051 121.641 8.6416C122.338 7.75684 123.261 7.31445 124.409 7.31445C125.493 7.31445 126.346 7.69238 126.967 8.44824L127.063 7.49023H128.988V16.71C128.988 17.958 128.599 18.9424 127.819 19.6631C127.046 20.3838 126 20.7441 124.682 20.7441C123.984 20.7441 123.302 20.5977 122.634 20.3047C121.972 20.0176 121.468 19.6396 121.122 19.1709L122.133 17.8877C122.789 18.667 123.598 19.0566 124.559 19.0566C125.268 19.0566 125.827 18.8633 126.237 18.4766C126.647 18.0957 126.853 17.5332 126.853 16.7891V16.1475C126.237 16.833 125.417 17.1758 124.392 17.1758C123.278 17.1758 122.367 16.7334 121.658 15.8486C120.955 14.9639 120.604 13.7393 120.604 12.1748ZM122.73 12.3594C122.73 13.3145 122.924 14.0674 123.311 14.6182C123.703 15.1631 124.245 15.4355 124.937 15.4355C125.798 15.4355 126.437 15.0664 126.853 14.3281V10.1445C126.448 9.42383 125.815 9.06348 124.954 9.06348C124.251 9.06348 123.703 9.3418 123.311 9.89844C122.924 10.4551 122.73 11.2754 122.73 12.3594ZM135.378 17.1758C134.024 17.1758 132.926 16.751 132.082 15.9014C131.244 15.0459 130.825 13.9092 130.825 12.4912V12.2275C130.825 11.2783 131.007 10.4316 131.37 9.6875C131.739 8.9375 132.255 8.35449 132.917 7.93848C133.579 7.52246 134.317 7.31445 135.132 7.31445C136.427 7.31445 137.426 7.72754 138.129 8.55371C138.838 9.37988 139.192 10.5488 139.192 12.0605V12.9219H132.979C133.043 13.707 133.304 14.3281 133.761 14.7852C134.224 15.2422 134.804 15.4707 135.501 15.4707C136.479 15.4707 137.276 15.0752 137.892 14.2842L139.043 15.3828C138.662 15.9512 138.152 16.3936 137.514 16.71C136.881 17.0205 136.169 17.1758 135.378 17.1758ZM135.123 9.02832C134.537 9.02832 134.062 9.2334 133.699 9.64355C133.342 10.0537 133.113 10.625 133.014 11.3574H137.083V11.1992C137.036 10.4844 136.846 9.94531 136.512 9.58203C136.178 9.21289 135.715 9.02832 135.123 9.02832ZM142.84 7.49023L142.901 8.58887C143.604 7.73926 144.527 7.31445 145.67 7.31445C147.65 7.31445 148.658 8.44824 148.693 10.7158V17H146.558V10.8389C146.558 10.2354 146.426 9.79004 146.162 9.50293C145.904 9.20996 145.479 9.06348 144.888 9.06348C144.026 9.06348 143.385 9.45312 142.963 10.2324V17H140.827V7.49023H142.84Z" fill="#E5E5E5"/>
</svg>
