<svg width="30" height="30" viewBox="0 0 30 30" fill="none" xmlns="http://www.w3.org/2000/svg">
<path d="M5 23.75H7.5C7.5 25.1287 8.62125 26.25 10 26.25H20C21.3787 26.25 22.5 25.1287 22.5 23.75H25C26.3787 23.75 27.5 22.6287 27.5 21.25V8.75C27.5 7.37125 26.3787 6.25 25 6.25H22.5C22.5 4.87125 21.3787 3.75 20 3.75H10C8.62125 3.75 7.5 4.87125 7.5 6.25H5C3.62125 6.25 2.5 7.37125 2.5 8.75V21.25C2.5 22.6287 3.62125 23.75 5 23.75ZM25 8.75V21.25H22.5V8.75H25ZM10 6.25H20L20.0012 23.75H10V21.25V6.25ZM5 8.75H7.5V21.25H5V8.75Z" fill="black" fill-opacity="0.8"/>
</svg>
