<svg width="13" height="13" viewBox="0 0 13 13" fill="none" xmlns="http://www.w3.org/2000/svg">
<path d="M1.11575 7.95004C1.15258 8.0887 1.24304 8.20733 1.36762 8.27883L2.4022 8.87683V10.068C2.4022 10.367 2.64433 10.6096 2.94387 10.6096H4.135L4.733 11.6442C4.80504 11.7682 4.92366 11.8592 5.06233 11.8966C5.10837 11.9085 5.15495 11.915 5.20208 11.915C5.29633 11.915 5.39004 11.8907 5.47345 11.8425L6.50695 11.2445L7.54154 11.8425C7.66558 11.9145 7.814 11.9335 7.95266 11.8966C8.09133 11.8598 8.20995 11.7688 8.28145 11.6442L8.87891 10.6102H10.07C10.3696 10.6102 10.6117 10.3675 10.6117 10.0685V8.87737L11.6463 8.27937C11.9052 8.12987 11.994 7.79837 11.844 7.53945L11.246 6.50541L11.844 5.47191C11.9935 5.21299 11.9047 4.88149 11.6463 4.73199L10.6117 4.13399V2.94233C10.6117 2.64333 10.3696 2.40066 10.07 2.40066H8.87891L8.28145 1.36662C8.20941 1.24203 8.09079 1.15158 7.95266 1.1142C7.814 1.07628 7.66612 1.09633 7.54154 1.16837L6.50695 1.76637L5.47291 1.16837C5.214 1.01778 4.8825 1.10716 4.733 1.36608L4.135 2.40066H2.94387C2.64433 2.40066 2.4022 2.64333 2.4022 2.94233V4.13345L1.36762 4.73145C1.24304 4.80349 1.15258 4.92212 1.11575 5.06079C1.07837 5.19945 1.09787 5.34733 1.16991 5.47191L1.76791 6.50541L1.16991 7.53891C1.09787 7.66349 1.07837 7.81137 1.11575 7.95004ZM2.86208 6.23404L2.37891 5.39824L3.21525 4.91453C3.38262 4.81758 3.48554 4.63883 3.48554 4.44545V3.48399H4.44754C4.64091 3.48399 4.8202 3.38108 4.91662 3.21316L5.39979 2.37737L6.23612 2.86053C6.4035 2.95749 6.61041 2.95749 6.77779 2.86053L7.61466 2.37737L8.09729 3.21316C8.19425 3.38108 8.373 3.48399 8.56637 3.48399H9.52837V4.44599C9.52837 4.63937 9.63129 4.81812 9.79866 4.91508L10.635 5.39879L10.1513 6.23458C10.0543 6.40249 10.0543 6.60887 10.1513 6.77678L10.635 7.61258L9.79866 8.09628C9.63129 8.19324 9.52837 8.37199 9.52837 8.56537V9.52737H8.56637C8.373 9.52737 8.1937 9.63029 8.09729 9.7982L7.61466 10.634L6.77779 10.1503C6.69437 10.1021 6.60066 10.0777 6.50695 10.0777C6.41325 10.0777 6.31954 10.1021 6.23558 10.1503L5.39979 10.634L4.91662 9.7982C4.81966 9.63083 4.64091 9.52737 4.44754 9.52737H3.48554V8.56537C3.48554 8.37199 3.38262 8.19324 3.21525 8.09628L2.37891 7.61258L2.86262 6.77678C2.95958 6.60887 2.95958 6.40195 2.86208 6.23404Z" fill="white"/>
<circle cx="6.5002" cy="6.50001" r="4.55" fill="white"/>
<path d="M3.983 6.59587L3.60107 7.05406L5.61767 8.73402L8.7878 4.93051L8.32961 4.54858L5.5414 7.89508L3.983 6.59587Z" fill="black" fill-opacity="0.8"/>
</svg>
