<svg width="30" height="30" viewBox="0 0 30 30" fill="none" xmlns="http://www.w3.org/2000/svg">
<path d="M3.74999 16.25H4.99999V18.75V25C4.99999 26.3788 6.12124 27.5 7.49999 27.5H11.25H18.75H22.5C23.8787 27.5 25 26.3788 25 25V18.75V16.25H26.25C26.755 16.25 27.2125 15.945 27.405 15.4788C27.5987 15.0113 27.4912 14.4738 27.1337 14.1163L15.8837 2.86626C15.395 2.37751 14.605 2.37751 14.1162 2.86626L2.86624 14.1163C2.50874 14.4738 2.40124 15.0113 2.59499 15.4788C2.78749 15.945 3.24499 16.25 3.74999 16.25ZM15 5.51751L22.5 13.0175V18.75L22.5012 25H20H17.5C17.5 25 16.3787 25 15 25H12.5H9.99999H7.49999V18.75V15V13.0175L15 5.51751Z" fill="black" fill-opacity="0.8"/>
</svg>
