<svg width="25" height="25" viewBox="0 0 25 25" fill="none" xmlns="http://www.w3.org/2000/svg">
<path d="M7.29158 17.7083C9.80617 17.7083 11.9114 15.9156 12.3937 13.5416H14.5833V15.625H16.6666V13.5416H18.7499V16.6666H20.8333V13.5416H21.8749V11.4583H12.3937C11.9114 9.08433 9.80617 7.29163 7.29158 7.29163C4.41971 7.29163 2.08325 9.62808 2.08325 12.5C2.08325 15.3718 4.41971 17.7083 7.29158 17.7083ZM7.29158 9.37496C9.0145 9.37496 10.4166 10.777 10.4166 12.5C10.4166 14.2229 9.0145 15.625 7.29158 15.625C5.56867 15.625 4.16659 14.2229 4.16659 12.5C4.16659 10.777 5.56867 9.37496 7.29158 9.37496Z" fill="black" fill-opacity="0.8"/>
</svg>
