<svg width="25" height="25" viewBox="0 0 25 25" fill="none" xmlns="http://www.w3.org/2000/svg">
<path d="M12.5003 2.08325C9.62845 2.08325 7.29199 4.41971 7.29199 7.29159V10.4166H6.25033C5.10137 10.4166 4.16699 11.351 4.16699 12.4999V20.8333C4.16699 21.9822 5.10137 22.9166 6.25033 22.9166H18.7503C19.8993 22.9166 20.8337 21.9822 20.8337 20.8333V12.4999C20.8337 11.351 19.8993 10.4166 18.7503 10.4166H17.7087V7.29159C17.7087 4.41971 15.3722 2.08325 12.5003 2.08325ZM18.7503 12.4999L18.7524 20.8333H6.25033V12.4999H18.7503ZM9.37532 10.4166V7.29159C9.37532 5.56867 10.7774 4.16659 12.5003 4.16659C14.2232 4.16659 15.6253 5.56867 15.6253 7.29159V10.4166H9.37532Z" fill="#D1D1D1"/>
</svg>
