<svg width="25" height="25" viewBox="0 0 25 25" fill="none" xmlns="http://www.w3.org/2000/svg">
<path d="M2.08325 12.5L7.29159 16.6667V13.5417H16.6666V11.4584H7.29159V8.33337L2.08325 12.5Z" fill="#FF3C5F"/>
<path d="M13.5427 3.1239C11.0375 3.1239 8.68337 4.09994 6.91357 5.87078L8.38649 7.34369C9.76357 5.96661 11.5948 5.20723 13.5427 5.20723C15.4907 5.20723 17.3219 5.96661 18.699 7.34369C20.0761 8.72078 20.8354 10.552 20.8354 12.4999C20.8354 14.4479 20.0761 16.2791 18.699 17.6562C17.3219 19.0333 15.4907 19.7927 13.5427 19.7927C11.5948 19.7927 9.76357 19.0333 8.38649 17.6562L6.91357 19.1291C8.68337 20.8999 11.0375 21.876 13.5427 21.876C16.0479 21.876 18.4021 20.8999 20.1719 19.1291C21.9427 17.3593 22.9188 15.0052 22.9188 12.4999C22.9188 9.99473 21.9427 7.64057 20.1719 5.87078C18.4021 4.09994 16.0479 3.1239 13.5427 3.1239Z" fill="#FF3C5F"/>
</svg>
