<svg width="100" height="100" viewBox="0 0 100 100" fill="none" xmlns="http://www.w3.org/2000/svg">
<path d="M49.9998 8.33337C38.5123 8.33337 29.1665 17.6792 29.1665 29.1667V41.6667H24.9998C20.404 41.6667 16.6665 45.4042 16.6665 50V83.3334C16.6665 87.9292 20.404 91.6667 24.9998 91.6667H74.9998C79.5957 91.6667 83.3332 87.9292 83.3332 83.3334V50C83.3332 45.4042 79.5957 41.6667 74.9998 41.6667H70.8332V29.1667C70.8332 17.6792 61.4873 8.33337 49.9998 8.33337ZM74.9998 50L75.0082 83.3334H24.9998V50H74.9998ZM37.4998 41.6667V29.1667C37.4998 22.275 43.1082 16.6667 49.9998 16.6667C56.8915 16.6667 62.4998 22.275 62.4998 29.1667V41.6667H37.4998Z" fill="#E5E5E5"/>
</svg>
