<svg width="30" height="30" viewBox="0 0 30 30" fill="none" xmlns="http://www.w3.org/2000/svg">
<path d="M5.00375 26.25C5.105 26.25 5.20625 26.2375 5.30625 26.2125L10.3063 24.9625C10.5263 24.9075 10.7275 24.7938 10.8875 24.6338L26.2537 9.26751C26.7262 8.79501 26.9862 8.16751 26.9862 7.50001C26.9862 6.83251 26.7262 6.20501 26.2537 5.73251L24.2712 3.75001C23.3263 2.80501 21.6813 2.80501 20.7363 3.75001L5.37 19.1163C5.21 19.2763 5.09625 19.4775 5.04125 19.6963L3.79125 24.6963C3.68375 25.1225 3.81 25.5725 4.12 25.8838C4.35625 26.1213 4.67625 26.25 5.00375 26.25ZM22.5038 5.51751L24.4862 7.50001L22.5038 9.48251L20.5212 7.50001L22.5038 5.51751ZM7.3825 20.6388L18.7538 9.26751L20.7363 11.25L9.36375 22.6213L6.72125 23.2813L7.3825 20.6388Z" fill="#E5E5E5"/>
</svg>
