<svg width="20" height="25" viewBox="0 0 20 25" fill="none" xmlns="http://www.w3.org/2000/svg">
<g clip-path="url(#clip0)">
<path d="M4.16675 7.28746C4.16675 7.28954 4.16675 7.29058 4.16675 7.29163V7.29267V15.625C4.16675 17.5395 4.78091 19.3604 5.89675 20.7541C7.01258 22.1489 8.46925 22.9166 10.0001 22.9166C11.5317 22.9166 12.9884 22.1489 14.1034 20.7541C15.2192 19.3604 15.8334 17.5395 15.8334 15.625V7.29163H14.1667V15.625C14.1667 16.9823 13.7259 18.2812 12.9251 19.2812C12.1251 20.2823 11.0859 20.8333 10.0001 20.8333C8.91508 20.8333 7.87592 20.2823 7.07508 19.2812C6.27425 18.2812 5.83341 16.9823 5.83341 15.625V7.29163H5.00008L5.83341 7.29059C5.83341 7.28954 5.83341 7.2885 5.83341 7.28746C5.83341 6.46454 6.09508 5.68433 6.57175 5.09058C7.04758 4.49579 7.67341 4.16767 8.33508 4.16663C8.99258 4.16558 9.61758 4.49267 10.0934 5.08746C10.5701 5.68434 10.8326 6.46767 10.8334 7.29163V15.625C10.8334 15.8916 10.7442 16.151 10.5834 16.352C10.4209 16.5552 10.2134 16.6666 10.0001 16.6666C9.79008 16.6666 9.57758 16.552 9.41842 16.3531C9.25592 16.151 9.16675 15.8916 9.16675 15.625V7.29163H7.50008V15.625C7.50008 16.4479 7.76258 17.2302 8.24092 17.827C8.71758 18.4229 9.34258 18.75 10.0001 18.75C10.6576 18.75 11.2834 18.4229 11.7617 17.825C12.2384 17.2291 12.5001 16.4468 12.5001 15.625V7.29059C12.4992 5.91142 12.0642 4.60621 11.2726 3.61559C10.4809 2.62496 9.43591 2.08121 8.33258 2.08329C7.22758 2.08434 6.18342 2.62913 5.39341 3.61663C4.60175 4.60413 4.16675 5.90829 4.16675 7.28746Z" fill="black" fill-opacity="0.8"/>
</g>
<defs>
<clipPath id="clip0">
<rect y="25" width="25" height="20" transform="rotate(-90 0 25)" fill="white"/>
</clipPath>
</defs>
</svg>
