<svg width="25" height="25" viewBox="0 0 25 25" fill="none" xmlns="http://www.w3.org/2000/svg">
<path d="M4.16977 21.875C4.25415 21.875 4.33852 21.8646 4.42185 21.8438L8.58852 20.8021C8.77185 20.7563 8.93956 20.6615 9.0729 20.5281L21.8781 7.72292C22.2719 7.32917 22.4885 6.80625 22.4885 6.25C22.4885 5.69375 22.2719 5.17084 21.8781 4.77709L20.226 3.125C19.4385 2.3375 18.0677 2.3375 17.2802 3.125L4.47498 15.9302C4.34165 16.0635 4.24685 16.2313 4.20102 16.4135L3.15936 20.5802C3.06977 20.9354 3.17498 21.3104 3.43331 21.5698C3.63019 21.7677 3.89685 21.875 4.16977 21.875ZM18.7531 4.59792L20.4052 6.25L18.7531 7.90209L17.101 6.25L18.7531 4.59792ZM6.15206 17.199L15.6281 7.72292L17.2802 9.375L7.80311 18.851L5.60102 19.401L6.15206 17.199Z" fill="white"/>
</svg>
