<svg width="25" height="25" viewBox="0 0 25 25" fill="none" xmlns="http://www.w3.org/2000/svg">
<path d="M3.12492 4.16667V9.375H5.20825V5.20833H9.37492V3.125H4.16659C3.59054 3.125 3.12492 3.59062 3.12492 4.16667ZM21.8749 9.375V4.16667C21.8749 3.59062 21.4093 3.125 20.8333 3.125H15.6249V5.20833H19.7916V9.375H21.8749ZM19.7916 19.7917H15.6249V21.875H20.8333C21.4093 21.875 21.8749 21.4094 21.8749 20.8333V15.625H19.7916V19.7917ZM9.37492 21.875V19.7917H5.20825V15.625H3.12492V20.8333C3.12492 21.4094 3.59054 21.875 4.16659 21.875H9.37492ZM2.08325 11.4583H22.9166V13.5417H2.08325V11.4583Z" fill="black" fill-opacity="0.8"/>
</svg>
