<svg width="120" height="120" viewBox="0 0 120 120" fill="none" xmlns="http://www.w3.org/2000/svg">
<path d="M67.1186 101.695H84.4067L95.7352 96.468L109.566 90.0813C110.42 89.695 111.336 89.4914 112.251 89.4914H112.576C112.678 89.4914 112.78 89.4914 112.881 89.5113C116.278 89.6543 118.983 92.4608 118.983 95.898C118.983 98.2169 117.743 100.373 115.709 101.491L86.4406 117.966H17.2881V95.5931H31.5254L39.661 87.4575H67.1186C67.4642 87.4575 67.7899 87.4774 68.1157 87.539C71.5727 88.0067 74.2372 90.997 74.2372 94.5762C74.2372 96.5286 73.4437 98.3182 72.1428 99.6003C70.8606 100.901 69.0711 101.695 67.1186 101.695Z" fill="#E9E9F1"/>
<path d="M112.881 79.322V89.5114C112.78 89.4915 112.678 89.4915 112.577 89.4915H112.251C111.336 89.4915 110.421 89.6951 109.566 90.0814L95.7354 96.4681L112.881 79.322Z" fill="#DB005C"/>
<path d="M112.881 65.0847V79.322L95.7352 96.4681L84.4067 101.695V93.5593L112.881 65.0847Z" fill="#FF437B"/>
<path d="M112.881 50.8474V65.0847L84.4067 93.5593V79.322L112.881 50.8474Z" fill="#DB005C"/>
<path d="M112.881 36.6101V50.8474L84.4067 79.322V65.0847L112.881 36.6101Z" fill="#FF437B"/>
<path d="M112.881 32.5425V36.6103L84.4067 65.0849V50.8476L102.712 32.5425H112.881Z" fill="#DB005C"/>
<path d="M112.881 16.2712V32.5424H84.4067V16.2712H112.881Z" fill="#DB005C"/>
<path d="M102.712 32.5425L84.4067 50.8476V32.5425H102.712Z" fill="#FF437B"/>
<path d="M84.4068 93.5594V101.695H67.1187C69.0711 101.695 70.8607 100.902 72.1428 99.6005C73.4438 98.3184 74.2373 96.5288 74.2373 94.5764C74.2373 90.9972 71.5728 88.0069 68.1157 87.5392L68.1356 87.4577V32.5425H84.4068V93.5594Z" fill="#FF006B"/>
<path d="M84.4067 16.2712V32.5424H68.1355V16.2712H84.4067Z" fill="#FF006B"/>
<path d="M68.1357 78.163V87.4576L68.1158 87.539C67.7901 87.4775 67.4644 87.4576 67.1188 87.4576H63.193L39.6611 63.9258V49.6885L68.1357 78.163Z" fill="#DB005C"/>
<path d="M68.1357 63.9258V78.163L39.6611 49.6885V35.4512L68.1357 63.9258Z" fill="#FF437B"/>
<path d="M68.1357 49.6886V63.9259L39.6611 35.4513V32.5425H50.9896L68.1357 49.6886Z" fill="#DB005C"/>
<path d="M68.1356 32.5425V49.6886L50.9895 32.5425H68.1356Z" fill="#FF437B"/>
<path d="M68.1357 16.2712V32.5424H39.6611V16.2712H68.1357Z" fill="#DB005C"/>
<path d="M63.193 87.4576H48.9557L39.6611 78.1631V63.9258L63.193 87.4576Z" fill="#FF437B"/>
<path d="M48.9557 87.4576H39.6611V78.1631L48.9557 87.4576Z" fill="#DB005C"/>
<path d="M27.5995 20.1969C28.6781 20.3587 29.4914 21.2744 29.4914 22.3728C29.4914 23.4712 28.6781 24.3868 27.5995 24.5487C22.3728 25.3631 18.2444 29.4914 17.43 34.739C17.2682 35.8166 16.3525 36.6101 15.2541 36.6101C14.1557 36.6101 13.2401 35.8166 13.0782 34.739C12.2639 29.4914 8.13549 25.3631 2.90873 24.5487C1.83021 24.3868 1.01685 23.4712 1.01685 22.3728C1.01685 21.2744 1.83021 20.3587 2.90873 20.1969C8.13549 19.3825 12.2639 15.2541 13.0782 10.0065C13.2401 8.929 14.1557 8.1355 15.2541 8.1355C16.3525 8.1355 17.2682 8.929 17.43 10.0065C18.2444 15.2541 22.3728 19.3825 27.5995 20.1969Z" fill="#5C108B"/>
<path d="M17.288 117.966V120H1.01685V91.5254H17.288V117.966Z" fill="#5C108B"/>
<path d="M53.8982 101.695H68.1355V105.763H53.8982V101.695Z" fill="white"/>
<path d="M17.2881 95.5933H21.3559V117.966H17.2881V95.5933Z" fill="white"/>
<path d="M81.1811 18.3051H55.09L52.5337 15.7488C49.8444 13.0595 49.0777 9.20716 50.5326 5.69452C51.9865 2.18287 55.2529 0 59.0565 0C61.5194 0 63.8383 0.960342 65.5793 2.70326L81.1811 18.3051ZM56.7743 14.2373H71.3612L62.7032 5.57932C61.729 4.60507 60.433 4.0678 59.0565 4.0678C56.5161 4.0678 54.9291 5.71339 54.2905 7.25073C53.654 8.78807 53.6132 11.0742 55.4098 12.8708L56.7743 14.2373Z" fill="#FF437B"/>
<path d="M97.4524 18.3051H71.3613L86.9631 2.70326C88.7061 0.960342 91.023 0 93.4859 0C97.2895 0 100.554 2.18287 102.008 5.69452C103.463 9.20716 102.696 13.0595 100.009 15.7488L97.4524 18.3051ZM81.1812 14.2373H95.7681L97.1326 12.8727C98.9292 11.0762 98.8885 8.79006 98.2519 7.25271C97.6153 5.71339 96.0263 4.0678 93.4859 4.0678C92.1095 4.0678 90.8135 4.60507 89.8392 5.57932L81.1812 14.2373Z" fill="#FF006B"/>
</svg>
