<svg width="54" height="54" viewBox="0 0 54 54" fill="none" xmlns="http://www.w3.org/2000/svg">
<circle cx="26.6645" cy="26.6645" r="20" transform="rotate(-25.5155 26.6645 26.6645)" fill="url(#paint0_linear)"/>
<g clip-path="url(#clip0)">
<path d="M29.1976 34.8736L29.8486 36.2374L27.5924 37.3143L28.6693 39.5705L30.9255 38.4936L33.1816 37.4167L35.4378 36.3398L34.3609 34.0837L32.1047 35.1605L31.1113 33.0792C32.1069 31.9323 32.917 30.5913 33.4535 29.0747C35.752 22.5786 32.3356 15.4209 25.8383 13.1202L25.0046 15.4767C30.203 17.3169 32.9356 23.0419 31.0965 28.2398C29.2569 33.4366 23.5318 36.172 18.3334 34.3318L17.4996 36.6883C20.7488 37.8369 24.1617 37.5584 27.0507 36.1795C27.8071 35.8198 28.5252 35.3801 29.1976 34.8736Z" fill="white"/>
<path d="M14.901 28.1362C16.6827 31.869 21.1673 33.4558 24.9002 31.6741C28.633 29.8923 30.2198 25.4077 28.438 21.6749C26.6563 17.942 22.1717 16.3553 18.4389 18.137C14.706 19.9187 13.1193 24.4034 14.901 28.1362ZM26.1819 22.7518C27.3697 25.2403 26.3119 28.2301 23.8233 29.4179C21.3347 30.6057 18.345 29.5479 17.1572 27.0593C15.9694 24.5707 17.0272 21.581 19.5158 20.3932C22.0043 19.2054 24.9941 20.2632 26.1819 22.7518Z" fill="white"/>
</g>
<defs>
<linearGradient id="paint0_linear" x1="46.6645" y1="6.66452" x2="6.66448" y2="46.6645" gradientUnits="userSpaceOnUse">
<stop stop-color="#FF4D00"/>
<stop offset="1" stop-color="#FFCF52"/>
</linearGradient>
<clipPath id="clip0">
<rect x="6.67078" y="19.5986" width="30" height="30" transform="rotate(-25.5155 6.67078 19.5986)" fill="white"/>
</clipPath>
</defs>
</svg>
