<svg width="30" height="30" viewBox="0 0 30 30" fill="none" xmlns="http://www.w3.org/2000/svg">
<circle cx="15" cy="15" r="15" fill="url(#paint0_linear)"/>
<path d="M15 6.97787C13.804 5.88804 12.2787 5.29004 10.671 5.29004C8.96152 5.29004 7.34302 5.96496 6.10694 7.19454C3.55785 9.75446 3.55894 13.7585 6.1091 16.3075L14.0521 24.2505C14.2363 24.5745 14.5916 24.7835 15 24.7835C15.3489 24.7835 15.6598 24.607 15.858 24.3405L23.8909 16.3075C26.4411 13.7574 26.4411 9.75446 23.8888 7.19021C22.657 5.96496 21.0385 5.29004 19.329 5.29004C17.7224 5.29004 16.196 5.88804 15 6.97787ZM22.3569 8.72204C24.0502 10.424 24.0513 13.0825 22.3591 14.7757L15 22.1348L7.64094 14.7757C5.94877 13.0825 5.94985 10.424 7.63877 8.72637C8.4621 7.90737 9.53894 7.45671 10.671 7.45671C11.8031 7.45671 12.8756 7.90737 13.6924 8.72421L14.2341 9.26587C14.6577 9.68946 15.3424 9.68946 15.7659 9.26587L16.3076 8.72421C17.9456 7.08946 20.7211 7.09379 22.3569 8.72204Z" fill="white"/>
<defs>
<linearGradient id="paint0_linear" x1="30" y1="0" x2="3.57628e-06" y2="30" gradientUnits="userSpaceOnUse">
<stop stop-color="#FF000F"/>
<stop offset="1" stop-color="#FF437B"/>
</linearGradient>
</defs>
</svg>
