<svg width="26" height="26" viewBox="0 0 26 26" fill="none" xmlns="http://www.w3.org/2000/svg">
<path d="M1.74999 14.25H2.99999V16.75V23C2.99999 24.3788 4.12124 25.5 5.49999 25.5H9.24999H16.75H20.5C21.8787 25.5 23 24.3788 23 23V16.75V14.25H24.25C24.755 14.25 25.2125 13.945 25.405 13.4788C25.5987 13.0113 25.4912 12.4738 25.1337 12.1163L13.8837 0.866257C13.395 0.377507 12.605 0.377507 12.1162 0.866257L0.866242 12.1163C0.508742 12.4738 0.401242 13.0113 0.594992 13.4788C0.787492 13.945 1.24499 14.25 1.74999 14.25ZM13 3.51751L20.5 11.0175V16.75L20.5012 23H18H15.5C15.5 23 14.3787 23 13 23H10.5H7.99999H5.49999V16.75V13V11.0175L13 3.51751Z" fill="#1FAEAE"/>
</svg>
