<svg width="429" height="778" viewBox="0 0 429 778" fill="none" xmlns="http://www.w3.org/2000/svg">
<g clip-path="url(#clip0)">
<path d="M50.891 543.567C49.9117 543.74 49.2569 544.675 49.4295 545.654C49.6022 546.634 50.5373 547.288 51.5167 547.116C52.496 546.943 53.1507 546.008 52.9781 545.029C52.8054 544.049 51.8703 543.394 50.891 543.567Z" fill="#108B8B" fill-opacity="0.1"/>
<path d="M43.7939 544.819L30.3095 547.196C29.3295 547.369 28.6753 548.303 28.8481 549.283C29.0209 550.263 29.9552 550.918 30.9352 550.745L44.4196 548.367C45.3996 548.194 46.0538 547.26 45.881 546.28C45.7082 545.3 44.7739 544.646 43.7939 544.819Z" fill="#108B8B" fill-opacity="0.1"/>
<path d="M71.4723 539.938L57.9879 542.316C57.0079 542.488 56.3537 543.423 56.5265 544.403C56.6993 545.383 57.6336 546.037 58.6136 545.864L72.098 543.487C73.078 543.314 73.7322 542.379 73.5594 541.399C73.3866 540.419 72.4523 539.765 71.4723 539.938Z" fill="#108B8B" fill-opacity="0.1"/>
<path d="M17.3582 618.998C16.3782 619.171 15.724 620.105 15.8968 621.085C16.0696 622.065 17.0039 622.719 17.9839 622.546L105.277 607.154C106.257 606.981 106.912 606.047 106.739 605.067C106.566 604.087 105.632 603.433 104.652 603.606L102.877 603.919C102.61 602.4 93.6817 551.766 93.1792 548.917C92.6616 545.981 89.853 544.015 86.9178 544.532L85.1436 544.845L83.5793 535.974C83.0618 533.039 80.2531 531.072 77.318 531.59L21.9611 541.351C19.026 541.868 17.0593 544.677 17.5769 547.612L19.1411 556.483L17.3669 556.796C14.4317 557.314 12.4651 560.122 12.9827 563.057L14.1602 569.736L9.68702 584.773C9.6112 585.028 9.5902 585.318 9.63982 585.6L10.2655 589.148C10.7591 591.948 12.5604 594.341 15.0648 595.616L19.1325 618.685L17.3582 618.998ZM17.29 592.665C15.4799 592.004 14.1481 590.417 13.814 588.523L13.5012 586.748L24.1467 584.871L24.4596 586.646C24.9771 589.581 23.0105 592.389 20.0754 592.907C19.1404 593.072 18.1773 592.988 17.29 592.665ZM34.2717 568.451L37.4795 578.862L27.3052 580.656L26.7588 569.775L34.2717 568.451ZM94.3234 576.156L70.723 580.317C70.7388 579.714 70.6958 579.11 70.5903 578.511L69.9646 574.963C69.9162 574.688 69.8016 574.424 69.6376 574.202L61.7741 563.601L91.1949 558.414L94.3234 576.156ZM57.8069 564.301L65.0068 574.008L55.0689 575.76L50.5304 565.584L57.8069 564.301ZM27.6953 584.246L38.3408 582.368L38.6537 584.143C39.1712 587.078 37.2046 589.887 34.2694 590.404C31.4972 590.893 28.7844 589.142 28.0947 586.422C28.0594 586.282 28.0306 586.147 28.0081 586.02L27.6953 584.246ZM41.8893 581.743L52.5349 579.866L52.8477 581.64C53.3653 584.575 51.3987 587.384 48.4635 587.901C45.5284 588.419 42.7197 586.452 42.2022 583.517L41.8893 581.743ZM46.8724 566.229L51.4109 576.405L41.0557 578.231L37.8479 567.82L46.8724 566.229ZM29.2567 593.101C30.9456 593.962 32.9109 594.302 34.8951 593.953C37.7942 593.441 40.126 591.589 41.3654 589.146C43.3654 591.018 46.1901 591.961 49.0892 591.45C51.0845 591.098 52.8113 590.11 54.0983 588.732L56.2891 601.157L31.4495 605.537L29.2567 593.101ZM56.0834 579.24L66.7289 577.363L67.0418 579.137C67.2067 580.072 67.1228 581.035 66.7997 581.923C66.4747 582.815 65.9192 583.608 65.1935 584.217C64.4688 584.825 63.5925 585.234 62.6576 585.398C59.7224 585.916 56.9138 583.949 56.3962 581.014L56.0834 579.24ZM89.3931 606.296L82.2961 607.548L79.7933 593.354L86.8903 592.102L89.3931 606.296ZM92.9416 605.671L90.126 589.702C89.9532 588.722 89.0189 588.068 88.0389 588.241L77.3933 590.118C76.4133 590.291 75.7591 591.225 75.9319 592.205L78.7476 608.173L72.3602 609.3L68.2927 586.231C68.8748 585.609 69.3663 584.907 69.7518 584.148L94.9491 579.705L99.329 604.544L92.9416 605.671ZM21.1254 546.986C20.9529 546.008 21.6082 545.072 22.5868 544.899L77.9437 535.138C78.9223 534.966 79.8583 535.621 80.0308 536.6L81.5951 545.471L22.6897 555.857L21.1254 546.986ZM16.5312 562.432C16.3586 561.453 17.014 560.517 17.9926 560.345L87.5435 548.081C88.5221 547.908 89.4581 548.564 89.6306 549.542L90.5692 554.865L17.4697 567.754L16.5312 562.432ZM17.4176 571.422L23.1826 570.406L23.729 581.286L13.9719 583.007L17.4176 571.422ZM18.895 596.588C19.4981 596.604 20.1029 596.561 20.7011 596.455C22.6964 596.104 24.4231 595.116 25.7101 593.738L28.2138 607.937C28.3866 608.917 29.3209 609.571 30.3009 609.398L58.689 604.392C59.669 604.22 60.3232 603.285 60.1504 602.305L57.6468 588.106C59.3275 588.961 61.2879 589.299 63.2833 588.947C63.8814 588.842 64.4645 588.675 65.0258 588.454L68.8117 609.925L22.681 618.059L18.895 596.588Z" fill="#108B8B" fill-opacity="0.1"/>
</g>
<g clip-path="url(#clip1)">
<path d="M204.275 558.403C203.295 558.576 202.641 559.511 202.813 560.49C202.986 561.47 203.921 562.125 204.9 561.952C205.88 561.779 206.534 560.844 206.362 559.865C206.189 558.885 205.254 558.231 204.275 558.403Z" fill="#108B8B" fill-opacity="0.1"/>
<path d="M182.983 562.158C182.004 562.33 181.349 563.265 181.522 564.245C181.695 565.224 182.63 565.879 183.609 565.706C184.588 565.533 185.243 564.598 185.071 563.619C184.898 562.64 183.963 561.985 182.983 562.158Z" fill="#108B8B" fill-opacity="0.1"/>
<path d="M175.245 552.475C175.139 552.686 175.041 552.91 174.943 553.137C173.447 556.571 171.91 561.225 170.866 564.832C168.792 571.993 166.16 583.392 165.4 597.038C165.369 597.588 165.591 598.121 166.003 598.487C166.414 598.851 166.969 599.009 167.511 598.913L231.385 587.65C231.927 587.555 232.396 587.216 232.658 586.731C233.159 585.8 232.637 585.007 232.612 584.898C228.652 575.698 223.936 567.166 218.597 559.537C213.275 551.933 208.943 547.585 208.306 546.797C208.142 546.51 208.064 546.189 208.062 545.793C208.143 545.547 208.169 545.281 208.136 545.01C208.31 544.013 208.77 542.789 209.291 541.399C210.542 538.068 212.212 533.617 211.623 527.83C215.983 526.913 219.192 523.124 219.136 518.889C219.062 513.284 214.038 509.117 208.56 510.083L199.689 511.647C196.755 512.164 193.945 510.198 193.428 507.263L192.614 502.65C192.442 501.67 191.507 501.016 190.527 501.188L176.333 503.691C175.354 503.864 174.699 504.798 174.872 505.778L175.685 510.391C176.203 513.326 174.236 516.135 171.301 516.653L162.809 518.15C158.291 518.947 154.925 522.817 154.983 527.154C155.057 532.758 160.081 536.925 165.558 535.959L165.624 535.948C167.047 541.561 170.133 545.174 172.444 547.878C173.415 549.015 174.269 550.016 174.776 550.898C174.837 551.161 174.952 551.399 175.109 551.6C175.224 551.917 175.268 552.2 175.245 552.475ZM228.504 584.5L169.143 594.966C170.032 582.667 172.421 572.415 174.327 565.835C176.285 559.072 178.131 554.769 178.507 553.996C178.635 553.794 178.722 553.566 178.761 553.325C178.851 552.855 178.874 552.384 178.837 551.912L182.417 551.281L182.118 556.652C182.063 557.645 182.823 558.496 183.817 558.551C184.81 558.606 185.661 557.846 185.715 556.852L186.062 550.638L189.978 549.948L192.168 562.368C192.34 563.348 193.275 564.002 194.255 563.829C195.235 563.656 195.889 562.722 195.716 561.742L193.526 549.322L197.443 548.632L199.894 554.352C200.284 555.264 201.342 555.692 202.259 555.299C203.174 554.907 203.597 553.848 203.206 552.934L201.087 547.989L204.668 547.358C204.801 547.834 204.993 548.286 205.255 548.716C206.12 550.136 218.148 561.281 228.504 584.5ZM215.533 518.936C215.566 521.408 213.667 523.637 211.061 524.264L210.75 522.503C210.233 519.567 207.424 517.601 204.489 518.118L202.715 518.431L202.089 514.883L209.186 513.631C212.373 513.069 215.487 515.438 215.533 518.936ZM179.234 509.766L178.733 506.927L189.379 505.05L189.879 507.889C190.635 512.172 194.32 515.219 198.509 515.33L199.227 519.403C194.155 521.336 190.143 525.274 188.239 529.711C184.956 526.217 179.847 523.863 174.388 523.783L173.669 519.71C177.569 518.172 179.989 514.049 179.234 509.766ZM158.586 527.106C158.552 524.517 160.637 522.192 163.435 521.698L170.152 520.514L170.778 524.063L169.004 524.375C166.069 524.893 164.102 527.702 164.62 530.637L164.932 532.411C161.746 532.973 158.632 530.604 158.586 527.106ZM168.794 533.56L168.168 530.011C167.996 529.032 168.652 528.096 169.629 527.924L171.404 527.611C177.632 526.513 184.481 529.441 187.367 534.553C187.743 535.218 188.497 535.574 189.249 535.441C190.002 535.308 190.588 534.716 190.714 533.963C191.681 528.153 197.131 523.075 203.34 521.98L205.115 521.667C206.093 521.494 207.029 522.15 207.202 523.128L207.827 526.677C208.832 532.371 207.216 536.675 205.918 540.132C205.436 541.416 205.001 542.577 204.734 543.687L177.518 548.486C176.886 547.531 176.078 546.585 175.184 545.537C172.782 542.727 169.793 539.229 168.794 533.56Z" fill="#108B8B" fill-opacity="0.1"/>
</g>
<g clip-path="url(#clip2)">
<path d="M312.72 513.644C313.292 512.827 313.094 511.704 312.278 511.135C311.464 510.563 310.34 510.761 309.769 511.577C309.197 512.391 309.395 513.514 310.211 514.086C311.027 514.655 312.151 514.457 312.72 513.644Z" fill="#108B8B" fill-opacity="0.1"/>
<path d="M330.728 513.055C332.437 510.614 331.842 507.238 329.401 505.529C326.954 503.815 323.586 504.409 321.872 506.856C320.159 509.303 320.752 512.669 323.2 514.383C325.641 516.092 329.018 515.497 330.728 513.055ZM324.824 508.922C325.395 508.107 326.518 507.909 327.334 508.48C328.147 509.05 328.345 510.175 327.776 510.988C327.206 511.802 326.08 512.001 325.266 511.431C324.452 510.861 324.251 509.74 324.824 508.922Z" fill="#108B8B" fill-opacity="0.1"/>
<path d="M325.412 526.927C323.698 529.375 324.292 532.742 326.739 534.456C329.186 536.169 332.553 535.576 334.267 533.129C335.977 530.687 335.381 527.31 332.94 525.6C330.493 523.887 327.125 524.481 325.412 526.927ZM331.316 531.062C330.744 531.878 329.621 532.076 328.806 531.505C327.991 530.935 327.79 529.812 328.363 528.995C328.934 528.178 330.057 527.981 330.873 528.552C331.687 529.122 331.886 530.248 331.316 531.062Z" fill="#108B8B" fill-opacity="0.1"/>
<path d="M314.287 525.368C314.649 526.296 315.694 526.753 316.62 526.392L340.826 516.948C341.753 516.587 342.211 515.542 341.85 514.615C341.488 513.688 340.444 513.23 339.517 513.592L315.311 523.035C314.383 523.397 313.925 524.441 314.287 525.368Z" fill="#108B8B" fill-opacity="0.1"/>
<path d="M330.409 483.02C329.938 483.103 329.52 483.369 329.246 483.76L313.903 505.672C313.332 506.487 313.53 507.611 314.345 508.182C315.161 508.753 316.284 508.555 316.854 507.739L331.164 487.303L357.728 505.903L324.919 552.759L298.355 534.159L308.588 519.545C309.159 518.731 308.961 517.607 308.145 517.036C307.33 516.466 306.207 516.664 305.636 517.479L294.37 533.568C293.799 534.383 293.998 535.506 294.813 536.077L324.328 556.744C325.144 557.315 326.266 557.117 326.837 556.302L361.713 506.494C362.284 505.679 362.086 504.555 361.27 503.985L331.755 483.318C331.364 483.044 330.88 482.937 330.409 483.02Z" fill="#108B8B" fill-opacity="0.1"/>
<path d="M362.604 467.53L356.331 476.487C351.297 473.915 345.151 474.943 341.322 478.991L333.953 473.672C333.945 473.667 333.939 473.662 333.932 473.657C331.497 471.953 328.128 472.524 326.403 474.988L285.366 533.862C283.653 536.309 284.246 539.678 286.694 541.391L294.972 547.187C294.193 551.963 296.227 556.863 300.269 559.693C304.312 562.525 309.612 562.759 313.834 560.395L322.112 566.191C324.558 567.904 327.928 567.309 329.638 564.866L370.931 506.162C372.645 503.715 372.051 500.348 369.604 498.635C369.597 498.63 369.59 498.626 369.583 498.621L362.065 493.516C364.553 488.565 363.458 482.429 359.283 478.554L365.556 469.597C366.126 468.782 365.928 467.658 365.113 467.087C364.298 466.516 363.175 466.714 362.604 467.53ZM358.175 493.02C357.898 493.415 357.792 493.904 357.878 494.379C357.966 494.853 358.24 495.273 358.638 495.544L367.546 501.593C368.357 502.168 368.546 503.286 367.981 504.092L326.688 562.796C326.118 563.61 324.992 563.809 324.178 563.239L314.922 556.758C314.522 556.477 314.036 556.378 313.576 556.459C313.32 556.504 313.073 556.604 312.852 556.76C309.722 558.962 305.496 558.955 302.336 556.741C299.175 554.529 297.723 550.561 298.722 546.867C298.92 546.134 298.639 545.356 298.017 544.92L288.761 538.439C287.946 537.869 287.748 536.743 288.32 535.926L329.357 477.051C329.925 476.239 331.041 476.039 331.856 476.602L340.586 482.904C341.369 483.469 342.516 483.335 343.117 482.477C345.619 478.903 350.317 477.74 354.236 479.479L352.093 482.541C349.948 481.947 347.565 482.724 346.218 484.648C344.509 487.089 345.104 490.467 347.545 492.176C349.992 493.889 353.36 493.296 355.074 490.848C356.452 488.88 356.313 486.374 355.046 484.605L357.189 481.544C360.139 484.594 360.709 489.402 358.175 493.02ZM351.679 486.272C352.494 486.842 352.695 487.964 352.122 488.782C351.551 489.597 350.428 489.795 349.612 489.224C348.798 488.654 348.599 487.528 349.169 486.714C349.74 485.901 350.866 485.701 351.679 486.272Z" fill="#108B8B" fill-opacity="0.1"/>
</g>
<g clip-path="url(#clip3)">
<path d="M284.981 395.774L282.337 387.019C282.052 386.078 281.066 385.539 280.12 385.807C276.655 386.79 272.988 384.784 271.947 381.336C270.905 377.888 272.849 374.188 276.279 373.088C277.215 372.788 277.737 371.792 277.453 370.851L274.809 362.096C274.352 360.584 273.333 359.34 271.941 358.593C270.548 357.847 268.949 357.688 267.436 358.144L206.428 376.571C204.931 377.024 203.698 378.027 202.949 379.398L194.732 380.847C191.52 381.413 189.368 384.487 189.934 387.699L191.522 396.706C191.693 397.674 192.608 398.327 193.579 398.172C197.137 397.607 200.54 400.033 201.165 403.581C201.791 407.128 199.423 410.572 195.886 411.257C194.921 411.444 194.284 412.371 194.455 413.339L196.043 422.345C196.609 425.557 199.683 427.71 202.895 427.143L252.882 418.329L265.657 416.077C268.869 415.51 271.022 412.436 270.455 409.224L269.973 406.486L281.029 403.147C282.542 402.69 283.786 401.672 284.532 400.279C285.278 398.886 285.438 397.287 284.981 395.774ZM265.869 403.962L266.499 407.536L266.907 409.85C267.128 411.105 266.287 412.307 265.032 412.528L254.031 414.468L253.5 411.462L253.444 411.141C253.271 410.161 252.337 409.507 251.357 409.68C250.377 409.853 249.723 410.787 249.895 411.767L250.027 412.511L250.482 415.093L228.846 418.908L215.716 421.224L202.27 423.595C201.014 423.816 199.813 422.975 199.592 421.719L198.285 414.307C200.211 413.574 201.87 412.276 203.062 410.545C204.597 408.316 205.184 405.62 204.714 402.955C204.244 400.289 202.77 397.956 200.565 396.387C198.853 395.168 196.85 394.516 194.79 394.486L193.483 387.073C193.261 385.818 194.102 384.617 195.358 384.395L202.299 383.171L205.85 382.545L243.57 375.894L247.38 397.499C247.553 398.479 248.487 399.134 249.467 398.961C250.447 398.788 251.101 397.854 250.928 396.874L247.119 375.269L258.12 373.329C259.375 373.107 260.577 373.949 260.798 375.204L262.105 382.616C260.179 383.35 258.52 384.647 257.328 386.378C255.792 388.607 255.206 391.303 255.676 393.969C256.146 396.635 257.619 398.967 259.824 400.537C261.537 401.756 263.539 402.408 265.6 402.438L265.869 403.962L265.869 403.962ZM281.356 398.577C281.065 399.121 280.578 399.519 279.987 399.698L269.343 402.913L268.867 400.218C268.697 399.249 267.781 398.597 266.81 398.751C263.253 399.316 259.85 396.89 259.224 393.343C258.599 389.795 260.967 386.352 264.503 385.666C265.468 385.479 266.105 384.553 265.934 383.585L264.346 374.578C263.78 371.366 260.706 369.213 257.494 369.78L244.719 372.032L218.767 376.608L268.478 361.594C269.069 361.415 269.694 361.477 270.239 361.769C270.783 362.061 271.181 362.547 271.359 363.138L273.536 370.343C271.71 371.3 270.217 372.785 269.238 374.645C267.978 377.04 267.715 379.787 268.497 382.378C269.28 384.969 271.02 387.111 273.395 388.408C275.24 389.415 277.306 389.825 279.355 389.611L281.532 396.816C281.71 397.407 281.648 398.033 281.356 398.577Z" fill="#108B8B" fill-opacity="0.1"/>
<path d="M251.93 403.352C251.867 403.254 251.794 403.16 251.713 403.076C251.632 402.99 251.542 402.912 251.446 402.845C251.35 402.778 251.244 402.72 251.137 402.673C251.028 402.624 250.916 402.589 250.802 402.563C250.687 402.538 250.569 402.522 250.452 402.519C250.215 402.515 249.979 402.557 249.758 402.641C249.648 402.684 249.545 402.739 249.444 402.803C249.346 402.866 249.252 402.937 249.168 403.02C249.082 403.101 249.004 403.191 248.937 403.287C248.868 403.384 248.811 403.487 248.763 403.596C248.716 403.703 248.679 403.816 248.653 403.93C248.628 404.046 248.614 404.164 248.611 404.282C248.608 404.399 248.618 404.518 248.638 404.633C248.659 404.749 248.69 404.864 248.733 404.973C248.776 405.083 248.83 405.189 248.893 405.287C248.956 405.388 249.029 405.481 249.11 405.566C249.193 405.652 249.282 405.729 249.379 405.796C249.475 405.863 249.579 405.922 249.688 405.969C249.795 406.016 249.908 406.052 250.022 406.078C250.138 406.103 250.254 406.119 250.371 406.121C250.491 406.123 250.608 406.116 250.725 406.095C250.841 406.075 250.954 406.042 251.065 405.998C251.175 405.957 251.28 405.902 251.379 405.839C251.478 405.776 251.571 405.702 251.657 405.621C251.742 405.541 251.821 405.45 251.888 405.354C251.955 405.258 252.014 405.154 252.061 405.045C252.108 404.938 252.144 404.826 252.17 404.71C252.195 404.595 252.209 404.478 252.212 404.36C252.215 404.242 252.207 404.123 252.187 404.008C252.167 403.892 252.133 403.778 252.09 403.668C252.047 403.559 251.994 403.453 251.93 403.352Z" fill="#108B8B" fill-opacity="0.1"/>
<path d="M235.091 392.868L227.098 393.109L222.367 386.662C221.961 386.109 221.277 385.834 220.602 385.953C219.926 386.072 219.377 386.564 219.185 387.223L217.214 393.977L216.945 394.9L214.07 395.849L209.351 397.406C208.699 397.621 208.227 398.188 208.131 398.867C208.036 399.546 208.334 400.22 208.901 400.606L214.401 404.354L215.51 405.109L215.525 408.332L215.547 413.106C215.55 413.792 215.942 414.417 216.559 414.717C217.175 415.018 217.909 414.943 218.451 414.523L224.776 409.629L232.393 412.064C232.677 412.155 232.973 412.173 233.255 412.123C233.623 412.058 233.969 411.879 234.238 411.6C234.715 411.107 234.87 410.386 234.638 409.74L231.938 402.212L236.608 395.721C237.009 395.164 237.059 394.428 236.737 393.823C236.415 393.217 235.777 392.847 235.091 392.868ZM228.46 400.877C228.114 401.358 228.026 401.979 228.227 402.537L230.014 407.52L224.971 405.908C224.407 405.728 223.789 405.836 223.32 406.199L219.133 409.439L219.108 404.145C219.107 403.873 219.042 403.61 218.927 403.372C218.791 403.091 218.586 402.845 218.321 402.665L215.759 400.919L213.946 399.684L215.684 399.11L218.974 398.024C219.025 398.007 219.075 397.986 219.125 397.964C219.613 397.752 219.987 397.335 220.138 396.818L221.621 391.736L224.753 396.005C225.104 396.483 225.667 396.758 226.26 396.74L231.552 396.58L228.46 400.877Z" fill="#108B8B" fill-opacity="0.1"/>
</g>
<g clip-path="url(#clip4)">
<path d="M94.1453 427.537C95.1253 427.364 95.7795 426.43 95.6067 425.45C95.434 424.471 94.4996 423.816 93.5196 423.989C92.5403 424.161 91.8855 425.096 92.0582 426.076C92.231 427.056 93.166 427.71 94.1453 427.537Z" fill="#108B8B" fill-opacity="0.1"/>
<path d="M58.8319 408.033C54.9524 408.929 52.5362 412.795 53.4327 416.676C56.8442 431.44 65.5267 444.335 77.8822 452.986C90.2369 461.637 105.324 465.386 120.364 463.541C124.308 463.059 127.125 459.471 126.64 455.514C126.333 452.999 124.764 450.897 122.555 449.864C122.588 449.701 138.427 369.973 138.587 369.164C138.727 368.464 138.439 367.747 137.853 367.337C137.268 366.928 136.496 366.902 135.886 367.273C132.576 369.281 69.1636 407.74 65.5348 409.94C63.8105 408.218 61.2992 407.463 58.8319 408.033ZM127.238 396.091C125.281 396.436 123.408 395.125 123.063 393.168C122.718 391.212 124.03 389.339 125.986 388.994C127.094 388.799 128.208 389.121 129.041 389.88C131.282 391.92 130.129 395.581 127.238 396.091ZM131.348 387.114C129.696 385.673 127.524 385.064 125.361 385.446C121.448 386.136 118.825 389.88 119.515 393.794C120.205 397.707 123.95 400.33 127.863 399.64C128.222 399.576 128.572 399.484 128.912 399.369L119.013 449.2C118.878 449.208 118.743 449.22 118.609 449.237C94.8477 452.15 72.8646 436.757 67.4743 413.43C67.4441 413.299 67.4084 413.169 67.3713 413.04L71.1467 410.751C72.2674 414.063 75.6762 416.159 79.2233 415.533C83.1364 414.843 85.7591 411.099 85.069 407.185C84.8184 405.764 84.1446 404.471 83.1731 403.456L134.256 372.476L131.348 387.114ZM79.9363 405.42C80.761 405.959 81.3462 406.822 81.5206 407.811C81.8656 409.768 80.5543 411.64 78.5978 411.985C76.6405 412.33 74.7685 411.019 74.4235 409.063C74.4073 408.97 74.3946 408.878 74.385 408.787L79.9363 405.42ZM63.964 414.244C69.77 439.37 93.4505 455.951 119.05 452.813C120.986 452.572 122.816 453.928 123.063 455.951C123.304 457.913 121.916 459.719 119.925 459.965C105.77 461.701 91.5729 458.174 79.9479 450.034C68.3237 441.895 60.154 429.76 56.9435 415.864C56.4952 413.926 57.7027 411.992 59.6418 411.544C59.705 411.529 59.7677 411.516 59.8315 411.505C61.7368 411.169 63.5317 412.384 63.964 414.244Z" fill="#108B8B" fill-opacity="0.1"/>
<path d="M105.314 418.251C109.228 417.561 111.849 413.816 111.16 409.902C110.469 405.989 106.725 403.367 102.811 404.057C98.898 404.747 96.2753 408.491 96.9654 412.405C97.6554 416.318 101.401 418.941 105.314 418.251ZM103.437 407.605C105.393 407.26 107.266 408.571 107.611 410.528C107.956 412.485 106.645 414.357 104.688 414.702C102.732 415.047 100.859 413.736 100.514 411.78C100.169 409.822 101.48 407.95 103.437 407.605Z" fill="#108B8B" fill-opacity="0.1"/>
<path d="M106.145 443.716C110.059 443.026 112.681 439.281 111.991 435.367C111.301 431.454 107.556 428.831 103.642 429.522C99.7293 430.212 97.1067 433.957 97.7967 437.87C98.4868 441.784 102.232 444.406 106.145 443.716ZM104.268 433.07C106.225 432.725 108.097 434.036 108.442 435.993C108.787 437.949 107.477 439.822 105.519 440.167C103.563 440.512 101.69 439.201 101.345 437.244C101 435.288 102.311 433.415 104.268 433.07Z" fill="#108B8B" fill-opacity="0.1"/>
<path d="M86.5813 425.236L83.0328 425.862C82.0528 426.035 81.3986 426.969 81.5714 427.949C81.7442 428.929 82.6785 429.584 83.6585 429.411L87.207 428.785C88.187 428.612 88.8412 427.678 88.6684 426.698C88.4956 425.718 87.5613 425.064 86.5813 425.236Z" fill="#108B8B" fill-opacity="0.1"/>
<path d="M111.038 398.971L114.586 398.345C115.566 398.173 116.221 397.238 116.048 396.258C115.875 395.278 114.941 394.624 113.961 394.797L110.412 395.423C109.432 395.595 108.778 396.53 108.951 397.51C109.124 398.49 110.058 399.144 111.038 398.971Z" fill="#108B8B" fill-opacity="0.1"/>
<path d="M114.792 420.262L111.243 420.888C110.263 421.061 109.609 421.995 109.782 422.975C109.955 423.955 110.889 424.609 111.869 424.436L115.418 423.811C116.398 423.638 117.052 422.704 116.879 421.724C116.706 420.744 115.772 420.089 114.792 420.262Z" fill="#108B8B" fill-opacity="0.1"/>
</g>
<g clip-path="url(#clip5)">
<path d="M380.223 356.606C381.202 356.433 381.857 355.498 381.684 354.518C381.511 353.539 380.576 352.884 379.597 353.057C378.618 353.23 377.963 354.165 378.136 355.144C378.308 356.123 379.243 356.778 380.223 356.606Z" fill="#108B8B" fill-opacity="0.1"/>
<path d="M373.126 357.857C374.105 357.684 374.76 356.749 374.587 355.77C374.414 354.79 373.479 354.136 372.5 354.308C371.521 354.481 370.866 355.416 371.039 356.395C371.211 357.375 372.146 358.03 373.126 357.857Z" fill="#108B8B" fill-opacity="0.1"/>
<path d="M376.254 375.6C375.275 375.772 374.62 376.707 374.793 377.687C374.965 378.666 375.901 379.321 376.88 379.148C377.859 378.975 378.514 378.04 378.341 377.061C378.169 376.082 377.233 375.427 376.254 375.6Z" fill="#108B8B" fill-opacity="0.1"/>
<path d="M366.029 359.108C367.008 358.936 367.663 358.001 367.49 357.021C367.317 356.042 366.382 355.387 365.403 355.56C364.424 355.733 363.769 356.668 363.942 357.647C364.114 358.626 365.049 359.281 366.029 359.108Z" fill="#108B8B" fill-opacity="0.1"/>
<path d="M413.694 343.074C415.588 342.006 416.774 339.794 416.357 337.428C415.949 335.115 414.118 333.404 411.923 333.036L410.931 327.408C410.758 326.428 409.824 325.774 408.844 325.947L399.973 327.511L399.66 325.737C399.142 322.802 396.334 320.835 393.399 321.353L378.719 323.941C375.925 320.008 371.067 317.973 366.243 318.823C361.419 319.674 357.55 323.248 356.269 327.899L341.59 330.488C338.655 331.005 336.688 333.814 337.206 336.749L337.519 338.523L328.648 340.088C327.668 340.26 327.013 341.195 327.186 342.175L328.178 347.8C326.283 348.868 325.097 351.08 325.515 353.446C325.923 355.759 327.753 357.47 329.948 357.838L339.763 413.5L337.988 413.813C337.008 413.986 336.354 414.92 336.527 415.9C336.7 416.88 337.634 417.534 338.614 417.361L425.908 401.969C426.888 401.796 427.542 400.862 427.369 399.882C427.196 398.902 426.262 398.248 425.282 398.421L423.508 398.733L413.694 343.074ZM403.356 391.31L399.852 371.439L407.481 370.093L410.985 389.965L403.356 391.31ZM392.178 393.281L388.674 373.41L396.303 372.064L399.807 391.936L392.178 393.281ZM377.506 382.697C376.526 382.869 375.871 383.804 376.044 384.784L379.861 406.43L372.764 407.681L365.506 366.518L383.248 363.39L390.506 404.552L383.409 405.804L379.593 384.158C379.42 383.178 378.486 382.524 377.506 382.697ZM348.531 400.977L345.027 381.106L352.657 379.76L356.16 399.632L348.531 400.977ZM341.434 402.229L336.053 371.711L361.957 367.144L363.209 374.241L342.627 377.87C341.647 378.043 340.993 378.977 341.166 379.957L344.983 401.603L341.434 402.229ZM410.198 344.002L412.075 354.648L335.427 368.163L333.55 357.517L410.198 344.002ZM356.205 379.135L363.834 377.789L367.338 397.661L359.709 399.006L356.205 379.135ZM408.63 366.232L388.048 369.861L386.797 362.764L412.701 358.196L418.082 388.714L414.534 389.339L410.717 367.693C410.544 366.713 409.61 366.059 408.63 366.232ZM340.754 336.123C340.582 335.145 341.237 334.209 342.216 334.036L358.08 331.239C358.832 331.107 359.418 330.514 359.544 329.762C360.171 326.003 363.115 323.034 366.869 322.372C370.622 321.71 374.404 323.493 376.279 326.811C376.655 327.475 377.409 327.831 378.161 327.698L394.024 324.901C395.003 324.729 395.939 325.384 396.111 326.363L396.424 328.137L341.067 337.898L340.754 336.123ZM407.695 329.808L408.321 333.357L331.673 346.872L331.047 343.323L407.695 329.808ZM330.525 350.733L410.721 336.592C411.7 336.42 412.636 337.075 412.808 338.054C412.981 339.033 412.326 339.968 411.347 340.141L331.15 354.282C330.172 354.454 329.236 353.799 329.063 352.82C328.891 351.841 329.545 350.906 330.525 350.733ZM342.06 405.777L367.964 401.21L369.215 408.307L343.311 412.874L342.06 405.777ZM394.055 403.927L392.804 396.83L418.708 392.262L419.959 399.359L394.055 403.927Z" fill="#108B8B" fill-opacity="0.1"/>
</g>
<g clip-path="url(#clip6)">
<path d="M172.381 215.038C172.378 215.155 172.364 215.273 172.339 215.389C172.313 215.503 172.276 215.616 172.229 215.723C172.183 215.832 172.124 215.936 172.057 216.032C171.99 216.128 171.912 216.218 171.826 216.299C171.742 216.38 171.648 216.453 171.548 216.517C171.449 216.58 171.344 216.635 171.234 216.676C171.013 216.763 170.777 216.804 170.542 216.798C170.425 216.797 170.307 216.781 170.191 216.756C170.076 216.73 169.964 216.693 169.857 216.646C169.748 216.6 169.644 216.541 169.548 216.474C169.452 216.407 169.362 216.329 169.281 216.243C169.198 216.159 169.127 216.065 169.064 215.967C169 215.866 168.945 215.761 168.904 215.651C168.861 215.541 168.828 215.427 168.807 215.311C168.787 215.196 168.779 215.077 168.782 214.959C168.783 214.842 168.799 214.724 168.824 214.609C168.85 214.493 168.885 214.381 168.933 214.274C168.98 214.165 169.039 214.061 169.106 213.965C169.173 213.869 169.25 213.779 169.337 213.698C169.421 213.617 169.514 213.544 169.613 213.48C169.714 213.417 169.819 213.362 169.929 213.32C170.038 213.277 170.153 213.244 170.269 213.224C170.384 213.204 170.503 213.195 170.621 213.198C170.738 213.2 170.856 213.215 170.97 213.241C171.086 213.266 171.199 213.303 171.306 213.35C171.415 213.397 171.519 213.456 171.615 213.523C171.711 213.59 171.801 213.667 171.882 213.754C171.963 213.838 172.036 213.931 172.1 214.032C172.163 214.13 172.216 214.236 172.259 214.346C172.302 214.455 172.335 214.57 172.356 214.686C172.376 214.801 172.384 214.92 172.381 215.038Z" fill="#108B8B" fill-opacity="0.1"/>
<path d="M223.285 205.498C223.281 205.517 223.277 205.536 223.273 205.555C222.313 209.664 218.732 211.752 213.927 211.003L200.963 209.764C200.63 212.054 199.172 214.21 196.817 215.59C196.802 215.599 196.788 215.607 196.773 215.615L183.998 222.623C183.125 224.284 180.242 228.649 173.61 229.819C168.974 230.636 164.313 228.179 161.356 225.127L144.934 228.023C143.954 228.195 143.019 227.541 142.846 226.561L138.902 204.192C138.729 203.212 139.384 202.277 140.364 202.105L150.913 200.245C151.893 200.072 152.827 200.726 153 201.706L153.27 203.238L158.217 202.366C159.197 202.193 160.131 202.847 160.304 203.827L160.394 204.338C163.234 203.577 164.086 202.863 166.465 200.869C168.295 199.335 171.06 197.017 176.165 193.547C176.188 193.531 176.213 193.515 176.237 193.501C177.227 192.894 179.191 191.87 181.755 191.418C183.54 191.103 185.617 191.066 187.856 191.64L216.903 196.605C216.954 196.614 217.006 196.625 217.056 196.638C219.879 197.379 224.367 200.079 223.285 205.498ZM149.764 204.106L142.764 205.341L146.082 224.161L153.083 222.927L149.764 204.106ZM157.069 206.227L153.896 206.787L156.631 222.301L159.804 221.742L157.069 206.227ZM216.212 200.143L187.178 195.18C187.153 195.176 187.118 195.169 187.093 195.163C187.067 195.158 187.042 195.152 187.016 195.145C182.904 194.068 179.473 195.752 178.154 196.552C173.223 199.906 170.656 202.058 168.78 203.631C166.172 205.817 164.915 206.871 161.021 207.894L163.541 222.184C165.709 224.644 169.468 226.89 172.984 226.27C179.014 225.207 180.878 220.834 180.95 220.658C181.105 220.268 181.391 219.944 181.759 219.742L195.016 212.469C197.119 211.227 197.969 209.089 197.083 207.262C196.674 206.418 195.961 205.784 195.075 205.477C194.197 205.173 193.253 205.225 192.415 205.624L177.407 213.465C176.524 213.926 175.436 213.584 174.976 212.702C174.515 211.82 174.856 210.732 175.738 210.271L190.772 202.417C190.788 202.409 190.804 202.401 190.82 202.393C191.424 202.1 192.056 201.896 192.699 201.783C193.877 201.575 195.095 201.67 196.256 202.073C198.051 202.695 199.496 203.98 200.325 205.689C200.391 205.826 200.453 205.963 200.509 206.101L214.482 207.443C216.522 207.761 219.089 207.552 219.757 204.764C220.385 201.518 217.065 200.379 216.212 200.143Z" fill="#108B8B" fill-opacity="0.1"/>
<path d="M213.618 255.397C213.615 255.515 213.601 255.633 213.574 255.749C213.549 255.863 213.514 255.975 213.465 256.083C213.418 256.192 213.36 256.295 213.292 256.391C213.225 256.487 213.148 256.578 213.061 256.659C212.977 256.74 212.884 256.813 212.785 256.876C212.685 256.939 212.579 256.995 212.471 257.036C212.25 257.122 212.014 257.164 211.777 257.158C211.66 257.157 211.542 257.141 211.428 257.115C211.312 257.09 211.199 257.053 211.092 257.006C210.983 256.959 210.88 256.901 210.784 256.834C210.688 256.766 210.597 256.689 210.516 256.603C210.435 256.518 210.362 256.425 210.299 256.326C210.235 256.226 210.18 256.12 210.139 256.011C210.096 255.901 210.063 255.786 210.042 255.671C210.022 255.556 210.014 255.436 210.017 255.319C210.018 255.201 210.034 255.083 210.06 254.969C210.085 254.853 210.122 254.74 210.169 254.633C210.215 254.525 210.274 254.421 210.341 254.325C210.408 254.229 210.486 254.138 210.572 254.057C210.657 253.977 210.75 253.903 210.85 253.84C210.949 253.777 211.055 253.723 211.164 253.68C211.274 253.637 211.389 253.604 211.504 253.584C211.619 253.564 211.738 253.555 211.858 253.558C211.974 253.561 212.091 253.575 212.208 253.601C212.322 253.626 212.434 253.663 212.541 253.71C212.65 253.757 212.754 253.815 212.85 253.883C212.946 253.95 213.036 254.027 213.118 254.113C213.2 254.198 213.271 254.291 213.335 254.392C213.4 254.49 213.453 254.596 213.496 254.705C213.539 254.815 213.571 254.93 213.591 255.045C213.611 255.161 213.621 255.28 213.618 255.397Z" fill="#108B8B" fill-opacity="0.1"/>
<path d="M242.034 268.25L231.485 270.11C230.505 270.283 229.571 269.629 229.398 268.649L229.128 267.117L224.181 267.989C223.201 268.162 222.266 267.508 222.094 266.528L222.004 266.017C219.164 266.778 218.312 267.492 215.933 269.486C214.103 271.02 211.338 273.338 206.233 276.808C206.209 276.824 206.185 276.839 206.161 276.854C204.481 277.883 199.998 280.114 194.543 278.715L186.953 277.418L181.996 284.497C181.425 285.312 180.301 285.51 179.486 284.939L156.245 268.665C155.493 268.139 155.175 267.052 155.802 266.156L183.611 226.441C184.056 225.805 185.292 225.419 186.12 225.999L207.339 240.856C207.801 240.733 208.284 240.625 208.788 240.536C213.424 239.719 218.085 242.176 221.041 245.228L237.464 242.332C238.444 242.159 239.379 242.813 239.551 243.793L243.496 266.163C243.669 267.143 243.014 268.077 242.034 268.25ZM180.077 280.954L183.408 276.197C182.075 275.666 180.615 275.513 179.163 275.769C177.711 276.025 176.391 276.668 175.32 277.623L180.077 280.954ZM163.118 261.99L159.788 266.747L164.545 270.078C165.076 268.745 165.229 267.285 164.973 265.833C164.717 264.381 164.074 263.061 163.118 261.99ZM185.53 229.984L182.199 234.74C184.936 235.828 188.085 235.273 190.285 233.314L185.53 229.984ZM193.293 235.419C189.873 238.955 184.516 239.899 180.094 237.747L165.224 258.983C166.945 260.645 168.097 262.802 168.521 265.207C168.945 267.613 168.601 270.033 167.551 272.183L172.314 275.518C173.975 273.796 176.132 272.645 178.537 272.22C180.943 271.796 183.364 272.141 185.514 273.19L188.675 268.676C187.825 268.7 186.969 268.569 186.142 268.282C184.746 267.798 183.561 266.913 182.713 265.738C180.646 265.721 178.623 265.078 176.913 263.881C172.274 260.633 171.143 254.217 174.391 249.578C176.015 247.259 178.431 245.816 181.021 245.36C183.611 244.903 186.375 245.432 188.694 247.056C190.203 248.113 191.38 249.531 192.133 251.17L197.765 248.08C196.54 245.075 196.651 241.667 198.059 238.757L193.293 235.419ZM185.581 254.765C185.596 254.756 185.61 254.748 185.625 254.74L188.961 252.91C188.48 251.748 187.677 250.743 186.627 250.008C183.616 247.9 179.451 248.634 177.343 251.645C175.234 254.656 175.969 258.821 178.98 260.93C179.706 261.439 180.52 261.793 181.372 261.98C181.219 259.197 182.753 256.421 185.581 254.765ZM201.066 240.863C200.578 242.099 200.415 243.441 200.583 244.752C201.325 243.988 202.257 243.203 203.414 242.506L201.066 240.863ZM218.857 248.172C216.689 245.711 212.93 243.465 209.414 244.085C208.756 244.201 208.148 244.357 207.586 244.542C207.584 244.542 207.581 244.543 207.579 244.544C203.846 245.776 202.168 248.317 201.641 249.299C201.614 249.359 201.496 249.588 201.479 249.625C201.337 250.031 201.051 250.388 200.644 250.611L187.382 257.886C185.28 259.128 184.429 261.266 185.314 263.092C185.314 263.093 185.315 263.094 185.316 263.096C185.316 263.097 185.317 263.098 185.318 263.1C185.727 263.94 186.439 264.572 187.323 264.879C188.201 265.183 189.145 265.131 189.983 264.731L204.991 256.891C205.873 256.43 206.961 256.771 207.422 257.653C207.883 258.535 207.541 259.624 206.659 260.085L194.723 266.32L194.632 266.45C194.632 266.451 194.631 266.453 194.63 266.454L189.239 274.153L195.22 275.176C195.24 275.179 195.265 275.184 195.285 275.188C195.29 275.189 195.3 275.191 195.305 275.192C195.331 275.198 195.356 275.204 195.382 275.211C199.493 276.288 202.924 274.604 204.244 273.803C209.174 270.449 211.742 268.297 213.618 266.725C216.226 264.538 217.483 263.485 221.377 262.462L218.857 248.172ZM225.767 248.054L222.594 248.613L225.329 264.128L228.502 263.568L225.767 248.054ZM236.316 246.194L229.315 247.428L232.634 266.249L239.634 265.015L236.316 246.194Z" fill="#108B8B" fill-opacity="0.1"/>
</g>
<g clip-path="url(#clip7)">
<path d="M77.9162 271.387C76.9369 271.56 76.2821 272.495 76.4548 273.474C76.6274 274.453 77.5626 275.108 78.5419 274.935C79.5212 274.763 80.1759 273.828 80.0033 272.848C79.8306 271.869 78.8955 271.214 77.9162 271.387Z" fill="#108B8B" fill-opacity="0.1"/>
<path d="M73.507 278.499C69.9235 283.304 64.7061 286.522 58.815 287.561C50.6209 289.006 42.1894 285.935 36.8102 279.547C36.1694 278.786 35.0331 278.688 34.2714 279.329C33.5104 279.97 33.4128 281.106 34.0537 281.868C40.2573 289.236 49.9852 292.777 59.4407 291.109C66.2391 289.911 72.261 286.198 76.3959 280.654C76.9906 279.856 76.8259 278.727 76.0285 278.133C75.2311 277.537 74.1024 277.702 73.507 278.499Z" fill="#108B8B" fill-opacity="0.1"/>
<path d="M93.5749 241.818C93.1189 241.963 92.6416 242.081 92.1557 242.166C86.2854 243.202 80.6682 239.268 79.6331 233.398C79.4603 232.418 78.5259 231.764 77.546 231.937C71.6756 232.972 66.0584 229.038 65.0233 223.168C64.8807 222.359 64.8296 221.539 64.8707 220.73C64.9177 219.822 64.279 219.02 63.3824 218.863C58.5269 218.014 52.3051 218.093 46.739 219.074C22.2716 223.389 4.99996 247.965 9.32695 272.504C13.6068 296.776 38.0358 314.275 62.7569 309.916C87.1918 305.608 104.34 281.16 100.221 256.791C100.205 256.69 100.187 256.588 100.169 256.486C99.3247 251.698 97.623 246.421 95.7281 242.713C95.3266 241.928 94.4145 241.549 93.5749 241.818ZM47.3647 222.623C51.9119 221.821 57.0949 221.67 61.2832 222.193C61.3169 222.728 61.3812 223.263 61.4748 223.794C62.7548 231.053 69.2923 236.092 76.4785 235.682C78.5514 242.575 85.5215 246.995 92.7814 245.715C92.902 245.694 93.0217 245.671 93.1411 245.647C94.4095 248.448 95.5388 251.95 96.2736 255.352C92.8943 255.883 90.0179 258.294 89.0101 261.681C88.0643 264.861 83.8915 265.597 81.9143 262.932C80.022 260.383 76.9968 259.044 73.8795 259.327C71.2409 249.534 61.4816 243.184 51.3066 244.979C40.5453 246.876 33.3336 257.175 35.2311 267.937C35.3326 268.512 35.4608 269.081 35.6114 269.643C33.8524 269.703 32.1733 268.905 31.101 267.461C27.3566 262.412 19.4501 263.806 17.6581 269.831C17.0703 271.806 15.4443 273.255 13.4156 273.613L13.2292 273.646C13.0982 273.061 12.9797 272.47 12.8755 271.879C8.87331 249.181 24.6674 226.625 47.3647 222.623ZM39.665 270.452C39.6635 270.447 39.6622 270.444 39.6608 270.44C39.2655 269.439 38.9692 268.386 38.7796 267.311C37.2271 258.506 43.1276 250.08 51.9323 248.527C60.7371 246.975 69.1638 252.875 70.7163 261.68C72.2688 270.485 66.3684 278.911 57.5636 280.464C50.0064 281.796 42.4794 277.586 39.665 270.452ZM62.1312 306.368C41.5997 309.988 20.5193 296.975 14.1754 277.136C17.4942 276.5 20.145 274.106 21.1117 270.859C22.058 267.678 26.2302 266.942 28.2073 269.608C30.2347 272.339 33.5621 273.681 36.911 273.127C40.7314 281.018 49.4421 285.555 58.1893 284.012C68.3352 282.223 75.3235 272.967 74.5009 262.895C76.2636 262.833 77.9465 263.631 79.0199 265.079C82.765 270.127 90.6714 268.733 92.4635 262.709C93.0738 260.658 94.8312 259.204 96.8906 258.903C99.7712 280.959 84.1674 302.482 62.1312 306.368Z" fill="#108B8B" fill-opacity="0.1"/>
<path d="M22.4099 260.515L25.3327 256.34C25.9036 255.525 25.7056 254.402 24.8903 253.831C24.075 253.261 22.9523 253.458 22.3814 254.274L19.4586 258.448C18.8876 259.263 19.0857 260.386 19.901 260.957C20.7163 261.528 21.839 261.33 22.4099 260.515Z" fill="#108B8B" fill-opacity="0.1"/>
<path d="M29.3898 245.184L32.9383 244.559C33.9183 244.386 34.5726 243.451 34.3998 242.471C34.227 241.491 33.2926 240.837 32.3126 241.01L28.7641 241.636C27.7841 241.809 27.1299 242.743 27.3027 243.723C27.4755 244.703 28.4098 245.357 29.3898 245.184Z" fill="#108B8B" fill-opacity="0.1"/>
<path d="M63.7264 242.789L67.275 242.163C68.255 241.99 68.9092 241.056 68.7364 240.076C68.5636 239.096 67.6293 238.442 66.6493 238.614L63.1007 239.24C62.1207 239.413 61.4665 240.347 61.6393 241.327C61.8121 242.307 62.7464 242.961 63.7264 242.789Z" fill="#108B8B" fill-opacity="0.1"/>
<path d="M83.2514 257.104C84.0667 257.675 85.1894 257.477 85.7603 256.662C86.3312 255.846 86.1332 254.724 85.3179 254.153L81.1437 251.23C80.3291 250.659 79.2056 250.857 78.6348 251.672C78.0638 252.487 78.2619 253.61 79.0772 254.181L83.2514 257.104Z" fill="#108B8B" fill-opacity="0.1"/>
<path d="M48.7091 237.583C49.5244 238.154 50.6472 237.956 51.2181 237.141C51.7889 236.325 51.5909 235.203 50.7757 234.632L46.6014 231.709C45.7869 231.138 44.6634 231.336 44.0925 232.151C43.5216 232.966 43.7196 234.089 44.5349 234.66L48.7091 237.583Z" fill="#108B8B" fill-opacity="0.1"/>
</g>
<g clip-path="url(#clip8)">
<path d="M316.881 196.664C317.861 196.491 318.515 195.556 318.343 194.576C318.17 193.597 317.235 192.942 316.256 193.115C315.276 193.288 314.622 194.223 314.794 195.202C314.967 196.181 315.902 196.836 316.881 196.664Z" fill="#108B8B" fill-opacity="0.1"/>
<path d="M297.99 203.653C298.68 207.566 302.426 210.189 306.339 209.499L306.83 209.412L328.939 250.56C328.943 250.567 328.947 250.575 328.951 250.582C330.372 253.137 333.26 254.512 336.139 254.004C339.018 253.497 341.262 251.217 341.723 248.33C341.725 248.322 341.726 248.314 341.727 248.305L348.429 202.077L348.921 201.99C352.834 201.3 355.456 197.555 354.766 193.642C354.221 190.551 351.769 188.266 348.834 187.783C349.394 186.519 349.598 185.082 349.341 183.622C348.651 179.709 344.905 177.086 340.992 177.776L338.273 178.256C339.63 176.073 340.221 173.404 339.741 170.679C338.833 165.533 334.463 161.703 329.348 161.572C328.818 161.558 328.308 161.78 327.955 162.177C327.602 162.574 327.443 163.106 327.519 163.632C327.944 166.562 325.129 169.597 321.373 170.259L310.727 172.136C306.814 172.826 304.192 176.572 304.882 180.485C305.109 181.777 305.672 182.927 306.462 183.865L305.507 184.033C301.594 184.723 298.972 188.469 299.662 192.382C299.919 193.842 300.602 195.122 301.561 196.118C298.968 197.576 297.445 200.562 297.99 203.653V203.653ZM338.163 247.774C337.94 249.138 336.877 250.215 335.514 250.456C334.15 250.696 332.782 250.048 332.107 248.841L310.566 208.753L318.023 207.438L341.616 223.958L338.163 247.774ZM323.042 206.553L333.083 204.783L329.073 210.776L323.042 206.553ZM342.195 219.964L332.025 212.844L337.998 203.916L344.693 202.736L342.195 219.964ZM308.43 179.859C308.085 177.903 309.396 176.03 311.353 175.685L321.998 173.808C326.789 172.963 330.427 169.46 331.066 165.472C333.63 166.261 335.702 168.526 336.192 171.305C336.882 175.218 334.26 178.964 330.347 179.654L312.604 182.782C310.648 183.127 308.775 181.816 308.43 179.859ZM304.461 198.853L309.784 197.915C310.764 197.742 311.418 196.808 311.246 195.828C311.073 194.848 310.139 194.193 309.159 194.366L307.384 194.679C305.428 195.024 303.555 193.713 303.21 191.756C302.865 189.8 304.176 187.927 306.133 187.582L341.618 181.325C343.575 180.98 345.447 182.291 345.792 184.248C346.137 186.204 344.826 188.077 342.87 188.422L323.353 191.863C322.373 192.036 321.718 192.97 321.891 193.95C322.064 194.93 322.998 195.585 323.978 195.412L347.044 191.345C349 191 350.873 192.311 351.218 194.268C351.563 196.224 350.252 198.097 348.295 198.442C346.327 198.789 307.064 205.712 305.713 205.95C303.756 206.295 301.884 204.984 301.539 203.027C301.194 201.071 302.505 199.198 304.461 198.853Z" fill="#108B8B" fill-opacity="0.1"/>
</g>
<g clip-path="url(#clip9)">
<path d="M239.535 70.7931C238.556 70.9658 237.901 71.9009 238.073 72.8802C238.246 73.8595 239.181 74.5143 240.161 74.3416C241.14 74.1689 241.795 73.2338 241.622 72.2545C241.449 71.2752 240.514 70.6204 239.535 70.7931Z" fill="#108B8B" fill-opacity="0.1"/>
<path d="M278.608 64.9997L262.818 41.2615C261.5 39.2786 259.49 37.9186 257.16 37.4313L250.625 36.0666L242.976 33.7909C242.709 33.7113 242.422 33.6956 242.149 33.7437L217.31 38.1236C217.301 38.1252 217.292 38.1281 217.282 38.1305C217.01 38.1822 216.754 38.2986 216.55 38.4505L210.139 43.2054L204.466 46.7226C202.442 47.977 201.019 49.943 200.459 52.2564L193.741 79.9641C193.522 80.8667 194.025 81.7884 194.903 82.0916L211.434 87.8009L218.82 129.694C218.993 130.674 219.928 131.328 220.908 131.156L270.587 122.396C271.567 122.223 272.221 121.289 272.048 120.309L264.661 78.4154L278.242 67.3967C278.964 66.8114 279.122 65.773 278.608 64.9997ZM233.723 58.5804L225.847 47.9607L237.492 45.9072L233.723 58.5804ZM243.675 37.758L248.333 39.1441L247.578 59.8011C247.56 60.2945 247.347 60.7486 246.98 61.0779C246.614 61.4068 246.142 61.5686 245.651 61.5331L236.789 60.9081L243.675 37.758ZM239.904 37.7984L238.641 42.0459L223.446 44.7251L220.806 41.1659L239.904 37.7984ZM217.248 42.4178L231.637 61.8166L223.523 65.4354C223.075 65.6353 222.575 65.6454 222.119 65.4615C221.661 65.2779 221.306 64.9238 221.121 64.4677L213.346 45.3134L217.248 42.4178ZM222.056 127.294L220.805 120.197L266.935 112.063L268.187 119.16L222.056 127.294ZM263.946 74.3561L262.389 65.5284C262.216 64.5484 261.282 63.8942 260.302 64.067C259.323 64.2397 258.668 65.1741 258.841 66.1541L266.31 108.515L220.179 116.649C219.754 114.237 213.015 76.0167 212.71 74.2882C212.537 73.3082 211.603 72.654 210.623 72.8268C209.643 72.9995 208.988 73.9339 209.161 74.9139L210.718 83.7415L197.629 79.2207L203.961 53.1053C204.297 51.7168 205.151 50.5379 206.365 49.7851L210.285 47.3544L217.783 65.8245C218.34 67.1947 219.403 68.2536 220.776 68.8055C222.148 69.3568 223.645 69.3271 224.992 68.726L234.745 64.3765L245.396 65.1274C246.87 65.2321 248.286 64.7472 249.386 63.7607C250.487 62.7727 251.124 61.414 251.18 59.9335L251.908 40.0153L256.422 40.9586C257.821 41.2508 259.027 42.0665 259.817 43.2563L274.699 65.631L263.946 74.3561Z" fill="#108B8B" fill-opacity="0.1"/>
<path d="M253.729 68.2904L246.632 69.5418C245.653 69.7144 244.998 70.6489 245.17 71.6289C245.343 72.6089 246.278 73.263 247.258 73.0903L254.355 71.8389C255.335 71.6661 255.989 70.7318 255.816 69.7518C255.643 68.7718 254.709 68.1176 253.729 68.2904Z" fill="#108B8B" fill-opacity="0.1"/>
</g>
<g clip-path="url(#clip10)">
<path d="M388.353 47.2848C387.373 47.4575 386.719 48.3926 386.891 49.3719C387.064 50.3512 387.999 51.006 388.978 50.8333C389.958 50.6606 390.612 49.7255 390.44 48.7462C390.267 47.7669 389.332 47.1121 388.353 47.2848Z" fill="#108B8B" fill-opacity="0.1"/>
<path d="M346.793 56.4424C346.62 55.4631 345.685 54.8083 344.706 54.981C343.727 55.1537 343.072 56.0888 343.244 57.0681C343.417 58.0474 344.352 58.7022 345.332 58.5295C346.311 58.3568 346.966 57.4217 346.793 56.4424Z" fill="#108B8B" fill-opacity="0.1"/>
<path d="M332.272 80.9558C332.68 83.2685 334.511 84.9795 336.706 85.3479L337.698 90.9756C338.215 93.9108 341.024 95.8774 343.959 95.3598L373.412 90.1665C376.347 89.649 378.314 86.8404 377.796 83.9052L376.858 78.5824L380.406 77.9567L381.345 83.2795C381.862 86.2147 384.671 88.1813 387.606 87.6637L417.059 82.4704C419.994 81.9529 421.96 79.1443 421.443 76.2091L420.451 70.5842C422.346 69.5146 423.531 67.3033 423.114 64.9379C422.597 62.0027 419.788 60.0361 416.853 60.5536L415.287 60.8298C415.001 56.3624 413.694 35.924 413.419 31.6311C415.417 30.5856 416.657 28.316 416.232 25.9042C415.795 23.4299 413.731 21.6443 411.336 21.4542L407.679 14.702C406.57 12.6515 404.282 11.5464 401.986 11.9513L377.651 16.2422C375.355 16.6471 373.583 18.4681 373.242 20.7735L372.116 28.3691C371.335 28.724 370.649 29.2608 370.11 29.949C369.389 29.5009 368.561 29.2196 367.689 29.1503L364.033 22.398C362.923 20.3476 360.635 19.2425 358.339 19.6474L334.004 23.9383C331.708 24.3432 329.936 26.1642 329.595 28.4696L328.469 36.0652C326.325 37.0392 324.944 39.3958 325.39 41.9221C325.808 44.2938 327.722 46.0328 329.991 46.3396C330.991 49.7514 337.19 70.8972 338.223 74.4182L336.656 74.6944C333.716 75.213 331.754 78.0151 332.272 80.9558ZM374.248 84.5309C374.42 85.5095 373.765 86.4455 372.786 86.618L343.333 91.8113C342.355 91.9839 341.419 91.3285 341.246 90.3499L340.308 85.0271L373.309 79.2081L374.248 84.5309ZM416.433 78.9219L386.98 84.1152C386.002 84.2878 385.066 83.6324 384.893 82.6538L383.955 77.331L416.956 71.512L417.894 76.8348C418.067 77.8134 417.412 78.7494 416.433 78.9219ZM419.566 65.5636C419.738 66.5429 419.084 67.478 418.104 67.6507L337.908 81.7915C336.929 81.964 335.993 81.3087 335.821 80.3301C335.648 79.3508 336.303 78.4156 337.282 78.243L417.479 64.1021C418.457 63.9296 419.393 64.5849 419.566 65.5636ZM350.757 68.5493C350.412 66.5927 351.723 64.72 353.68 64.375C355.636 64.0301 357.509 65.3413 357.854 67.2979C358.199 69.2544 356.888 71.1271 354.931 71.4721C352.975 71.8171 351.102 70.5058 350.757 68.5493ZM330.399 39.2093L366.936 32.7669C366.94 32.7661 366.945 32.766 366.949 32.7652L366.955 32.7643C367.931 32.595 368.864 33.2494 369.036 34.226C369.209 35.2053 368.554 36.1404 367.575 36.3131L331.025 42.7578C330.047 42.9303 329.111 42.275 328.938 41.2964C328.765 40.3171 329.42 39.3819 330.399 39.2093ZM333.633 45.9568L366.218 40.2111L366.45 43.8292L334.653 49.4358L333.633 45.9568ZM369.772 39.3272C370.443 38.976 371.034 38.4858 371.511 37.8772C372.151 38.2747 372.874 38.5401 373.637 38.6436C374.637 42.0553 380.837 63.201 381.87 66.7221L371.64 68.5259C371.34 63.8366 369.996 42.8358 369.772 39.3272ZM410.097 36.1331L378.3 41.7397L377.28 38.2607L409.865 32.515L410.097 36.1331ZM394.404 60.8532C394.059 58.8966 395.37 57.0239 397.327 56.6789C399.283 56.334 401.156 57.6452 401.501 59.6018C401.846 61.5583 400.535 63.431 398.578 63.776C396.622 64.121 394.749 62.8097 394.404 60.8532ZM404.72 62.693C405.142 61.5417 405.277 60.2679 405.049 58.9761C404.359 55.063 400.614 52.4404 396.701 53.1304C392.788 53.8204 390.165 57.5658 390.855 61.4789C391.083 62.7707 391.646 63.9215 392.436 64.859L385.44 66.0927L379.32 45.2186L410.328 39.7511L410.559 43.3692L395.45 46.0334C394.47 46.2062 393.815 47.1405 393.988 48.1205C394.161 49.1005 395.095 49.7547 396.075 49.5819L410.791 46.9872L411.717 61.4593L404.72 62.693ZM411.222 28.617L374.672 35.0617C373.693 35.2342 372.757 34.5789 372.585 33.6003C372.412 32.621 373.067 31.6858 374.046 31.5132L410.583 25.0708C410.587 25.07 410.592 25.0699 410.596 25.0691L410.602 25.0682C411.578 24.8989 412.511 25.5533 412.683 26.5299C412.856 27.5092 412.201 28.4443 411.222 28.617ZM378.276 19.7907L402.612 15.4998C403.377 15.3647 404.14 15.7326 404.51 16.4171L407.509 21.954L375.882 27.5306L376.806 21.3012C376.919 20.5324 377.511 19.9258 378.276 19.7907ZM334.63 27.4868L358.965 23.1959C359.731 23.0608 360.494 23.4287 360.863 24.1132L363.862 29.6501L332.236 35.2267L333.16 28.9973C333.273 28.2285 333.864 27.6219 334.63 27.4868ZM335.673 52.9147L366.681 47.4472L366.912 51.0653L351.803 53.7295C350.823 53.9023 350.169 54.8366 350.341 55.8166C350.514 56.7966 351.449 57.4508 352.429 57.278L367.144 54.6833L368.07 69.1554L361.073 70.3891C361.495 69.2378 361.63 67.964 361.403 66.6722C360.713 62.7591 356.967 60.1366 353.054 60.8265C349.141 61.5165 346.519 65.2619 347.209 69.175C347.436 70.4668 347.999 71.6176 348.789 72.5551L341.793 73.7888L335.673 52.9147Z" fill="#108B8B" fill-opacity="0.1"/>
</g>
<g clip-path="url(#clip11)">
<path d="M70.0524 145.12C69.0738 145.292 68.419 146.227 68.5916 147.206C68.7643 148.185 69.6994 148.84 70.678 148.667C71.6573 148.495 72.3114 147.56 72.1387 146.58C71.9662 145.602 71.0317 144.947 70.0524 145.12Z" fill="#108B8B" fill-opacity="0.1"/>
<path d="M66.9249 127.383C65.9456 127.555 65.2914 128.49 65.4641 129.469L67.3407 140.112C67.5134 141.091 68.4477 141.745 69.427 141.573C70.4063 141.4 71.0605 140.466 70.8878 139.486L69.0112 128.843C68.8385 127.864 67.9049 127.21 66.9249 127.383Z" fill="#108B8B" fill-opacity="0.1"/>
<path d="M138.477 66.0033L129.162 66.3795L124.07 59.4374C123.663 58.8844 122.98 58.6098 122.305 58.7288C121.629 58.848 121.08 59.3399 120.888 59.9984L118.476 68.2659C109.429 71.201 109.724 71.0218 109.337 71.2737C108.879 71.1672 109.19 71.2381 99.7201 71.573L94.626 64.6291C94.2205 64.076 93.5361 63.8015 92.861 63.9205C92.186 64.0396 91.6367 64.5316 91.4448 65.19L89.0323 73.4576C79.9854 76.3927 80.2804 76.2135 79.8938 76.4653C79.4356 76.3589 79.7475 76.4297 70.2771 76.7646L65.1824 69.8208C64.7769 69.2677 64.0931 68.9931 63.4174 69.1122C62.7424 69.2313 62.1931 69.7233 62.0012 70.3817L59.5897 78.647L50.7083 81.4793C50.0366 81.6942 49.5517 82.2799 49.4672 82.9802C49.3834 83.6803 49.715 84.365 50.3165 84.7327L58.0752 89.471L58.1159 98.0343C58.1189 98.7198 58.5112 99.3438 59.1273 99.6446C59.7435 99.9454 60.4769 99.8697 61.019 99.4504L67.8366 94.175L76.0482 96.8004C76.7033 97.01 77.4177 96.8269 77.8921 96.3359C78.3683 95.8424 78.5228 95.122 78.2918 94.4767L75.396 86.4026L80.492 79.8579L87.5185 84.2651L87.5588 92.8427C87.5618 93.5282 87.9541 94.1522 88.5703 94.453C89.1847 94.752 89.9187 94.6798 90.4626 94.2587L95.5051 90.3568C95.8558 97.0266 93.3807 103.169 87.9896 109.045C87.9009 109.138 87.3538 109.67 84.0313 112.607C82.5956 113.876 78.2618 117.03 74.6006 119.745C73.4051 118.253 71.453 117.441 69.4418 117.795L57.7351 119.859C56.7558 120.032 56.1015 120.966 56.2743 121.946L62.5293 157.42C62.702 158.399 63.6363 159.053 64.6156 158.88L76.3222 156.816C78.3529 156.458 79.9192 155.002 80.5203 153.167C91.2074 155.81 104.843 155.445 114.096 153.813L124.837 151.919C128.757 151.228 131.373 147.494 130.681 143.574C130.424 142.115 129.742 140.836 128.785 139.841C131.357 138.4 132.902 135.427 132.352 132.306C132.095 130.847 131.413 129.569 130.456 128.573C133.027 127.131 134.574 124.159 134.023 121.038C133.65 118.921 132.382 117.185 130.678 116.143C131.995 114.49 132.504 112.424 132.147 110.396C131.457 106.484 127.712 103.862 123.801 104.552L110.526 106.893C111.472 101.68 111.223 95.4503 110.447 91.0473L109.969 88.3374C109.476 85.5436 107.716 83.1214 105.056 81.8166L104.84 81.2116L109.936 74.6662L116.963 79.074L117.002 87.651C117.006 88.3364 117.398 88.9612 118.015 89.2612C118.631 89.562 119.364 89.4863 119.906 89.067L126.724 83.7915L134.935 86.4171C135.591 86.6266 136.304 86.4443 136.779 85.9526C137.255 85.4598 137.41 84.7386 137.179 84.0933L134.288 76.0334L139.958 68.9265C140.398 68.3759 140.476 67.619 140.157 66.9899C139.838 66.3601 139.182 65.9755 138.477 66.0033ZM71.9451 84.9716C71.5657 85.4587 71.4626 86.1057 71.6707 86.6865L73.6693 92.2575L68.0319 90.4553C67.7501 90.3649 67.4538 90.3464 67.1704 90.3964C66.8876 90.4462 66.6155 90.5649 66.3817 90.7462L61.7007 94.3679L61.6732 88.4493C61.6703 87.8245 61.3439 87.2461 60.8106 86.9206L55.5593 83.7132L61.5976 81.7874C62.1687 81.6052 62.6116 81.1505 62.7796 80.5757L64.437 74.8945L67.9381 79.6661C68.2918 80.1482 68.8613 80.423 69.4583 80.4006L75.6874 80.1641L71.9451 84.9716ZM77.1575 151.182C77.3299 152.16 76.6746 153.096 75.696 153.269L65.7636 155.02L60.1342 123.094L70.0665 121.342C71.0451 121.17 71.9811 121.825 72.1535 122.803L77.1575 151.182ZM100.742 108.618C99.7631 108.791 99.1089 109.725 99.2815 110.704C99.4543 111.684 100.389 112.338 101.368 112.165L124.426 108.099C126.382 107.754 128.254 109.065 128.599 111.022C128.944 112.98 127.636 114.849 125.677 115.194L113.261 117.383C112.282 117.556 111.627 118.49 111.8 119.47C111.973 120.45 112.907 121.103 113.886 120.931L126.302 118.741C128.259 118.396 130.131 119.708 130.475 121.664C130.821 123.622 129.512 125.491 127.553 125.836C125.027 126.282 117.669 127.579 115.137 128.026C114.158 128.198 113.504 129.133 113.677 130.112C113.849 131.092 114.784 131.746 115.763 131.573L124.631 130.01C126.587 129.665 128.459 130.975 128.804 132.931C129.15 134.891 127.842 136.758 125.882 137.104L117.014 138.668C116.035 138.84 115.38 139.775 115.553 140.755C115.726 141.734 116.66 142.388 117.639 142.215L122.961 141.277C124.917 140.932 126.789 142.243 127.133 144.199C127.479 146.158 126.171 148.027 124.212 148.372L113.47 150.266C104.334 151.877 90.7799 152.21 80.5084 149.444L75.8933 123.271C80.2701 120.015 84.753 116.777 86.4173 115.306C90.2176 111.946 90.5035 111.634 90.6394 111.485C97.6507 103.842 100.289 95.7339 98.7062 86.6988C98.7049 86.6918 98.7038 86.6856 98.7026 86.6786C98.7018 86.6738 98.7011 86.6703 98.7004 86.6662C98.5276 85.6862 99.1825 84.7518 100.162 84.5791C103.075 84.0654 105.898 86.0001 106.421 88.9623L106.899 91.6729C107.661 95.9983 107.887 102.617 106.706 107.566L100.742 108.618ZM101.388 79.78C101.136 80.1046 101.008 80.5008 101.012 80.9004C100.519 80.9052 100.025 80.9458 99.5357 81.0321C96.9678 81.4848 95.1705 83.6691 95.075 86.1342L91.1443 89.1762L91.1162 83.2577C91.1132 82.6408 90.7949 82.0681 90.2726 81.74L85.111 78.5025L91.0453 76.5943C91.614 76.4111 92.0558 75.958 92.2226 75.3841L93.8806 69.7028L97.3811 74.4745C97.7348 74.9567 98.3049 75.2313 98.9019 75.2089L105.131 74.9724L101.388 79.78ZM130.845 74.5716C130.455 75.0599 130.346 75.7151 130.557 76.3032L132.556 81.8742L126.919 80.0718C126.637 79.9816 126.341 79.9637 126.058 80.0136C125.774 80.0636 125.503 80.1815 125.268 80.3629L120.588 83.9845L120.56 78.066C120.557 77.4491 120.239 76.8764 119.716 76.5483L114.555 73.3108L120.489 71.4026C121.058 71.2194 121.499 70.7663 121.666 70.1924L123.324 64.5111L126.825 69.2828C127.179 69.7662 127.751 70.0413 128.35 70.0172L134.683 69.7615L130.845 74.5716Z" fill="#108B8B" fill-opacity="0.1"/>
</g>
<g clip-path="url(#clip12)">
<path d="M228.181 711.681C229.161 711.509 229.815 710.574 229.643 709.594C229.47 708.615 228.535 707.96 227.556 708.133C226.576 708.306 225.922 709.241 226.094 710.22C226.267 711.199 227.202 711.854 228.181 711.681Z" fill="#108B8B" fill-opacity="0.1"/>
<path d="M230.058 722.327C231.038 722.154 231.693 721.219 231.52 720.24C231.347 719.261 230.412 718.606 229.433 718.779C228.453 718.951 227.799 719.886 227.971 720.866C228.144 721.845 229.079 722.5 230.058 722.327Z" fill="#108B8B" fill-opacity="0.1"/>
<path d="M231.936 732.973C232.915 732.8 233.57 731.865 233.397 730.886C233.224 729.906 232.289 729.251 231.31 729.424C230.331 729.597 229.676 730.532 229.848 731.511C230.021 732.491 230.956 733.145 231.936 732.973Z" fill="#108B8B" fill-opacity="0.1"/>
<path d="M273.472 740.284C278.364 739.422 281.642 734.74 280.779 729.849L266.638 649.652C266.512 648.935 265.965 648.364 265.254 648.206C264.543 648.049 263.806 648.335 263.388 648.932L258.576 655.804L251.703 650.992C250.889 650.421 249.765 650.619 249.194 651.434L244.382 658.307L237.509 653.495C236.695 652.924 235.571 653.122 235 653.937L230.188 660.81L223.315 655.998C222.501 655.427 221.377 655.625 220.806 656.44L215.994 663.313L209.121 658.5C208.524 658.083 207.734 658.065 207.12 658.457C206.505 658.848 206.187 659.572 206.313 660.289L218.264 728.066L205.845 730.256C204.865 730.428 204.21 731.363 204.383 732.343L206.26 742.988C207.123 747.88 211.804 751.158 216.696 750.295L273.472 740.284ZM210.617 663.947L215.403 667.297C216.218 667.868 217.341 667.67 217.912 666.855L222.724 659.983L229.597 664.795C230.412 665.366 231.535 665.167 232.106 664.352L236.918 657.48L243.791 662.292C244.606 662.863 245.729 662.665 246.3 661.849L251.112 654.977L257.985 659.789C258.8 660.36 259.923 660.162 260.494 659.347L263.845 654.562L277.231 730.474C277.748 733.409 275.782 736.218 272.846 736.736L223.162 745.496C224.017 743.815 224.355 741.855 224.003 739.86C223.462 736.791 211.508 668.997 210.617 663.947ZM209.809 742.363L208.245 733.491L218.89 731.614L220.454 740.485C220.972 743.421 219.005 746.229 216.07 746.747C213.135 747.264 210.326 745.298 209.809 742.363Z" fill="#108B8B" fill-opacity="0.1"/>
<path d="M242.608 689.746C241.85 689.88 240.948 689.547 240.067 688.81C239.304 688.171 238.168 688.271 237.529 689.035C236.89 689.797 236.991 690.934 237.754 691.572C238.901 692.533 240.155 693.123 241.407 693.311L241.772 695.382C241.945 696.362 242.879 697.016 243.859 696.843C244.839 696.67 245.493 695.736 245.321 694.756L244.954 692.677C246.889 691.58 248.026 689.347 247.618 687.033C247.1 684.098 244.291 682.131 241.356 682.649C240.378 682.821 239.442 682.166 239.269 681.187C239.097 680.21 239.752 679.273 240.731 679.1C241.359 678.99 242.079 679.193 242.813 679.689C243.638 680.247 244.758 680.03 245.315 679.206C245.872 678.382 245.655 677.262 244.831 676.704C243.777 675.992 242.789 675.658 241.931 675.531L241.566 673.465C241.394 672.485 240.459 671.831 239.479 672.003C238.499 672.176 237.845 673.11 238.018 674.09L238.385 676.17C236.448 677.266 235.313 679.5 235.721 681.813C236.238 684.748 239.047 686.715 241.982 686.197C242.96 686.025 243.897 686.681 244.069 687.659C244.242 688.637 243.586 689.573 242.608 689.746Z" fill="#108B8B" fill-opacity="0.1"/>
<path d="M235.278 710.43L263.667 705.424C264.647 705.252 265.301 704.317 265.128 703.337C264.955 702.357 264.021 701.703 263.041 701.876L234.653 706.881C233.673 707.054 233.018 707.989 233.191 708.969C233.364 709.949 234.298 710.603 235.278 710.43Z" fill="#108B8B" fill-opacity="0.1"/>
<path d="M237.156 721.076L265.544 716.07C266.524 715.897 267.178 714.963 267.005 713.983C266.832 713.003 265.898 712.349 264.918 712.522L236.53 717.527C235.55 717.7 234.896 718.634 235.068 719.614C235.241 720.594 236.176 721.249 237.156 721.076Z" fill="#108B8B" fill-opacity="0.1"/>
<path d="M239.033 731.721L267.421 726.716C268.401 726.543 269.055 725.609 268.882 724.629C268.709 723.649 267.775 722.994 266.795 723.167L238.407 728.173C237.427 728.346 236.773 729.28 236.945 730.26C237.118 731.24 238.053 731.894 239.033 731.721Z" fill="#108B8B" fill-opacity="0.1"/>
</g>
<g clip-path="url(#clip13)">
<path d="M140.599 740.663C141.578 740.49 142.233 739.555 142.06 738.576C141.888 737.596 140.952 736.941 139.973 737.114C138.994 737.287 138.339 738.222 138.512 739.201C138.684 740.181 139.62 740.835 140.599 740.663Z" fill="#108B8B" fill-opacity="0.1"/>
<path d="M139.347 733.566C140.327 733.393 140.982 732.459 140.809 731.479L138.306 717.284C138.133 716.304 137.199 715.65 136.219 715.823C135.239 715.996 134.585 716.93 134.757 717.91L137.26 732.104C137.433 733.084 138.367 733.738 139.347 733.566Z" fill="#108B8B" fill-opacity="0.1"/>
<path d="M59.7766 751.255L61.5509 750.942L65.8056 775.072C65.9784 776.052 66.9127 776.706 67.8927 776.533L148.089 762.393C151.024 761.875 152.991 759.066 152.473 756.131L140.835 690.129C140.663 689.149 139.728 688.495 138.748 688.667L125.264 691.045L124.951 689.271C123.399 680.466 114.972 674.566 106.167 676.118C97.379 677.668 91.4526 686.044 93.0145 694.902L93.3273 696.676L79.843 699.054C78.863 699.227 78.2087 700.161 78.3816 701.141L81.6984 719.952C80.1909 721.567 79.3278 723.683 79.2686 725.876C79.2079 725.881 79.1474 725.886 79.0878 725.897C79.0282 725.907 78.97 725.922 78.9113 725.934C77.3758 722.032 73.251 719.608 68.9651 720.364C64.0734 721.227 60.7955 725.908 61.6581 730.8C62.0099 732.795 62.9975 734.522 64.3757 735.809L57.2738 737.061C56.2938 737.234 55.6396 738.168 55.8124 739.148L57.6895 749.794C57.8623 750.774 58.7966 751.428 59.7766 751.255ZM65.0994 750.316L73.9707 748.752L77.9126 771.108L69.0413 772.672L65.0994 750.316ZM77.5192 748.126L88.1648 746.249L92.1067 768.605L81.4611 770.482L77.5192 748.126ZM104.526 766.415C100.721 767.086 99.8136 767.246 95.6552 767.979L91.7133 745.624L100.585 744.059L104.526 766.415ZM91.0876 742.075L89.8362 734.978L102.256 732.788L103.507 739.885L91.0876 742.075ZM89.2105 731.43C89.1495 731.44 89.0886 731.448 89.0279 731.456C88.5402 730.218 87.7859 729.105 86.8105 728.194L85.613 721.403C86.1453 721.102 86.7263 720.891 87.3334 720.784C90.2685 720.267 93.0772 722.233 93.5947 725.168C94.1123 728.103 92.1456 730.912 89.2105 731.43ZM79.6103 729.464L81.1804 729.387C82.8994 729.555 84.4802 730.557 85.3584 732.109L75.3255 733.878C75.6953 731.7 77.3592 729.905 79.6103 729.464ZM86.2877 735.604L87.5391 742.701L76.8935 744.578L75.6421 737.481L86.2877 735.604ZM147.464 758.844L108.075 765.789L106.824 758.692L147.986 751.434L148.925 756.757C149.098 757.736 148.442 758.672 147.464 758.844ZM96.563 694.276C95.3551 687.426 99.9169 680.879 106.793 679.667C113.641 678.459 120.195 683.048 121.403 689.897L121.715 691.671L96.8758 696.051L96.563 694.276ZM93.953 700.225L95.3921 708.387L93.6179 708.699C92.6379 708.872 91.9837 709.806 92.1565 710.786C92.3293 711.766 93.2636 712.421 94.2436 712.248L101.341 710.997C102.321 710.824 102.975 709.889 102.802 708.909C102.629 707.929 101.695 707.275 100.715 707.448L98.9406 707.761L97.5015 699.599L122.341 695.219L123.78 703.381L122.006 703.694C121.026 703.867 120.372 704.801 120.545 705.781C120.717 706.761 121.652 707.415 122.632 707.242L129.729 705.991C130.709 705.818 131.363 704.884 131.19 703.904C131.017 702.924 130.083 702.27 129.103 702.442L127.329 702.755L125.89 694.594L137.6 692.529L147.361 747.886L106.198 755.144L104.133 743.434L105.907 743.121C106.887 742.948 107.542 742.014 107.369 741.034L105.492 730.388C105.319 729.408 104.385 728.754 103.405 728.927L96.3027 730.179C97.1576 728.498 97.4951 726.538 97.1432 724.543C96.2807 719.651 91.5994 716.373 86.7077 717.236C86.1096 717.341 85.5265 717.507 84.9652 717.729L82.2429 702.29L93.953 700.225ZM65.2066 730.174C64.689 727.239 66.6556 724.43 69.5908 723.913C72.187 723.455 74.6839 724.942 75.5839 727.323C73.2102 728.946 71.7367 731.641 71.6506 734.52C71.59 734.533 71.5296 734.547 71.4679 734.558C68.5327 735.076 65.7241 733.109 65.2066 730.174ZM59.6738 740.297L72.0936 738.107L73.345 745.204L60.9252 747.394L59.6738 740.297Z" fill="#108B8B" fill-opacity="0.1"/>
</g>
<g clip-path="url(#clip14)">
<path d="M408.452 623.671C407.75 622.968 406.608 622.968 405.905 623.672C405.2 624.374 405.2 625.516 405.904 626.219C406.608 626.923 407.748 626.924 408.453 626.22C409.155 625.516 409.156 624.376 408.452 623.671Z" fill="#108B8B" fill-opacity="0.1"/>
<path d="M417.957 680.124C417.055 679.703 415.984 680.093 415.563 680.996C415.142 681.897 415.532 682.97 416.435 683.389C417.336 683.81 418.409 683.42 418.828 682.519C419.249 681.616 418.859 680.545 417.957 680.124Z" fill="#108B8B" fill-opacity="0.1"/>
<path d="M326.551 637.664C325.65 637.243 324.577 637.634 324.158 638.535C323.737 639.437 324.128 640.508 325.029 640.929C325.932 641.35 327.003 640.96 327.423 640.057C327.844 639.156 327.454 638.083 326.551 637.664Z" fill="#108B8B" fill-opacity="0.1"/>
<path d="M337.082 694.835C336.378 694.13 335.238 694.13 334.533 694.834C333.831 695.538 333.83 696.677 334.535 697.382C335.237 698.085 336.378 698.085 337.081 697.381C337.786 696.679 337.786 695.537 337.082 694.835Z" fill="#108B8B" fill-opacity="0.1"/>
<path d="M387.629 634.416C384.014 632.17 380.056 630.725 375.864 630.119C371.489 629.486 367.079 629.807 362.758 631.072C356.458 632.916 350.797 636.907 346.817 642.309C342.831 647.721 340.709 654.311 340.841 660.866C340.958 666.669 342.649 672.256 345.729 677.022C348.671 681.574 352.796 685.281 357.658 687.742C359.15 688.498 360.214 689.933 360.504 691.581L361.328 696.254L363.367 707.813C363.797 710.256 365.771 712.045 368.108 712.357C368.924 715.04 370.597 717.361 372.931 718.997C375.692 720.928 379.038 721.67 382.354 721.085C388.735 719.96 393.152 714.193 392.749 707.871C394.627 706.7 395.703 704.452 395.303 702.182L393.265 690.623L392.441 685.95C392.15 684.3 392.654 682.594 393.789 681.384C396.978 677.986 399.387 673.847 400.756 669.413C402.194 664.757 402.491 659.948 401.64 655.119C400.129 646.554 395.022 639.008 387.629 634.416ZM381.728 717.537C379.36 717.954 376.969 717.424 374.998 716.046C373.528 715.016 372.424 713.605 371.783 711.973L389.17 708.907C389.059 713.097 386.013 716.781 381.728 717.537ZM391.754 702.808C391.929 703.797 391.308 704.774 390.341 705.032C390.334 705.034 390.327 705.036 390.32 705.038C390.27 705.052 390.221 705.063 390.168 705.072L369.179 708.773C368.118 708.96 367.102 708.249 366.915 707.188L366.535 705.032L366.535 705.032L391.374 700.652L391.754 702.808L391.754 702.808ZM390.748 697.103L365.909 701.483L365.19 697.402L370.512 696.464L384.706 693.961L390.029 693.023L390.748 697.104L390.748 697.103ZM372.933 668.695C374.761 668.372 376.513 667.627 378.033 666.492L382.306 690.726L371.661 692.603L367.388 668.369C369.204 668.916 371.106 669.017 372.933 668.695ZM367.132 664.41L370.3 653.76L376.919 662.684C374.396 665.33 370.408 666.033 367.132 664.41ZM391.162 678.918C389.254 680.951 388.405 683.814 388.892 686.575L389.403 689.474L385.854 690.1L380.974 662.423C380.963 662.359 380.947 662.296 380.929 662.233C380.924 662.215 380.918 662.198 380.912 662.18C380.897 662.136 380.882 662.091 380.864 662.048C380.856 662.029 380.848 662.01 380.839 661.992C380.82 661.949 380.799 661.908 380.777 661.867C380.768 661.85 380.759 661.834 380.749 661.818C380.723 661.773 380.694 661.73 380.664 661.687C380.658 661.679 380.653 661.67 380.647 661.662L380.629 661.637C380.627 661.635 380.626 661.633 380.624 661.631L371.047 648.719C370.641 648.171 369.96 647.9 369.288 648.018C368.616 648.137 368.068 648.625 367.874 649.279L363.29 664.687C363.29 664.69 363.289 664.693 363.288 664.695L363.28 664.724C363.277 664.734 363.275 664.744 363.273 664.754C363.259 664.804 363.247 664.854 363.237 664.906C363.233 664.924 363.231 664.942 363.228 664.961C363.221 665.007 363.215 665.054 363.212 665.1C363.21 665.121 363.209 665.141 363.208 665.161C363.206 665.208 363.206 665.255 363.208 665.302C363.209 665.32 363.209 665.339 363.21 665.357C363.214 665.423 363.221 665.487 363.232 665.551L368.113 693.228L364.564 693.854L364.053 690.955C363.566 688.196 361.785 685.793 359.286 684.527C350.335 679.997 344.648 670.903 344.444 660.793C344.204 648.924 352.332 637.879 363.77 634.53C371.315 632.321 379.113 633.368 385.728 637.476C392.252 641.528 396.759 648.187 398.091 655.745C399.58 664.193 397.055 672.639 391.162 678.918Z" fill="#108B8B" fill-opacity="0.1"/>
<path d="M383.826 640.536C382.98 640.011 381.87 640.271 381.345 641.116C380.819 641.961 381.079 643.072 381.924 643.597C386.711 646.571 390.017 651.455 390.994 656.997C391.167 657.977 392.101 658.631 393.081 658.458C394.061 658.286 394.715 657.351 394.542 656.371C393.387 649.821 389.481 644.049 383.826 640.536Z" fill="#108B8B" fill-opacity="0.1"/>
<path d="M335.68 664.921L327.519 666.36C326.539 666.532 325.885 667.467 326.057 668.447C326.23 669.427 327.165 670.081 328.145 669.908L336.306 668.469C337.286 668.296 337.94 667.362 337.767 666.382C337.595 665.402 336.66 664.748 335.68 664.921Z" fill="#108B8B" fill-opacity="0.1"/>
<path d="M414.811 650.968L406.649 652.407C405.669 652.58 405.015 653.514 405.188 654.494C405.361 655.474 406.295 656.128 407.275 655.955L415.436 654.516C416.416 654.343 417.07 653.409 416.898 652.429C416.725 651.449 415.79 650.795 414.811 650.968Z" fill="#108B8B" fill-opacity="0.1"/>
<path d="M347.273 684.644C346.57 683.94 345.429 683.94 344.725 684.643L339.629 689.739C338.926 690.442 338.925 691.583 339.629 692.287C340.061 692.719 340.658 692.886 341.217 692.787C341.569 692.725 341.905 692.558 342.177 692.287L347.273 687.191C347.977 686.488 347.977 685.347 347.273 684.644Z" fill="#108B8B" fill-opacity="0.1"/>
<path d="M403.326 628.59C402.623 627.886 401.482 627.886 400.778 628.589L395.682 633.685C394.978 634.388 394.978 635.529 395.682 636.232C396.114 636.665 396.711 636.832 397.27 636.733C397.622 636.671 397.958 636.504 398.23 636.233L403.326 631.137C404.03 630.434 404.03 629.293 403.326 628.59Z" fill="#108B8B" fill-opacity="0.1"/>
<path d="M339.582 643.577L333.051 640.532C332.149 640.111 331.077 640.501 330.657 641.403C330.236 642.305 330.627 643.377 331.528 643.797L338.06 646.842C338.408 647.005 338.781 647.046 339.133 646.984C339.692 646.886 340.196 646.525 340.454 645.971C340.875 645.069 340.484 643.997 339.582 643.577Z" fill="#108B8B" fill-opacity="0.1"/>
<path d="M411.427 677.079L404.895 674.034C403.993 673.613 402.921 674.004 402.501 674.905C402.08 675.807 402.471 676.879 403.373 677.3L409.904 680.345C410.252 680.507 410.626 680.548 410.977 680.486C411.536 680.388 412.04 680.027 412.298 679.473C412.719 678.571 412.328 677.499 411.427 677.079Z" fill="#108B8B" fill-opacity="0.1"/>
</g>
<defs>
<clipPath id="clip0">
<rect x="1.31799" y="538.405" width="92.2434" height="92.2434" transform="rotate(-10 1.31799 538.405)" fill="white"/>
</clipPath>
<clipPath id="clip1">
<rect x="138.009" y="510.449" width="92.2434" height="92.2434" transform="rotate(-10 138.009 510.449)" fill="white"/>
</clipPath>
<clipPath id="clip2">
<rect x="274.7" y="482.493" width="92.2434" height="92.2434" transform="rotate(-10 274.7 482.493)" fill="white"/>
</clipPath>
<clipPath id="clip3">
<rect x="184.131" y="354.788" width="92.2434" height="92.2434" transform="rotate(-10 184.131 354.788)" fill="white"/>
</clipPath>
<clipPath id="clip4">
<rect x="47.4397" y="382.744" width="92.2434" height="92.2434" transform="rotate(-10 47.4397 382.744)" fill="white"/>
</clipPath>
<clipPath id="clip5">
<rect x="320.822" y="326.832" width="92.2434" height="92.2434" transform="rotate(-10 320.822 326.832)" fill="white"/>
</clipPath>
<clipPath id="clip6">
<rect width="92.2434" height="92.2434" transform="matrix(0.984808 -0.173648 -0.173648 -0.984808 154.027 289.969)" fill="white"/>
</clipPath>
<clipPath id="clip7">
<rect x="1.31799" y="227.083" width="92.2434" height="92.2434" transform="rotate(-10 1.31799 227.083)" fill="white"/>
</clipPath>
<clipPath id="clip8">
<rect x="274.7" y="171.172" width="92.2434" height="92.2434" transform="rotate(-10 274.7 171.172)" fill="white"/>
</clipPath>
<clipPath id="clip9">
<rect x="184.131" y="43.9739" width="92.2434" height="92.2434" transform="rotate(-10 184.131 43.9739)" fill="white"/>
</clipPath>
<clipPath id="clip10">
<rect x="320.822" y="16.0179" width="92.2434" height="92.2434" transform="rotate(-10 320.822 16.0179)" fill="white"/>
</clipPath>
<clipPath id="clip11">
<rect x="47.4397" y="71.9296" width="92.2434" height="92.2434" transform="rotate(-10 47.4397 71.9296)" fill="white"/>
</clipPath>
<clipPath id="clip12">
<rect x="183.645" y="662.457" width="92.2434" height="92.2434" transform="rotate(-10 183.645 662.457)" fill="white"/>
</clipPath>
<clipPath id="clip13">
<rect x="46.5521" y="686.63" width="92.2434" height="92.2434" transform="rotate(-10 46.5521 686.63)" fill="white"/>
</clipPath>
<clipPath id="clip14">
<rect x="320.738" y="638.283" width="92.2434" height="92.2434" transform="rotate(-10 320.738 638.283)" fill="white"/>
</clipPath>
</defs>
</svg>
