<svg width="120" height="120" viewBox="0 0 120 120" fill="none" xmlns="http://www.w3.org/2000/svg">
<path d="M55.4742 70H43.4742V59.02L72.2942 38.44L63.9142 27.26L36.8542 46H16.5742L3.07417 61.02C-0.473083 64.9832 -0.297333 71.0295 3.47417 74.78L15.7742 87.08L19.4742 81.82V120H35.4742V86H49.4742V100H65.4742V80C65.4742 74.4772 60.9972 70 55.4742 70ZM19.4742 71.36L16.2742 68L19.4742 64.8V71.36Z" fill="#41EC86"/>
<path d="M29.4741 46C37.2061 46 43.4741 39.732 43.4741 32C43.4741 24.268 37.2061 18 29.4741 18C21.7421 18 15.4741 24.268 15.4741 32C15.4741 39.732 21.7421 46 29.4741 46Z" fill="#41EC86"/>
<path d="M41.4741 96H85.4741V120H41.4741V96Z" fill="#15C299"/>
<path d="M105.474 0H101.474C101.474 7.732 95.2061 14 87.4741 14V18C95.2061 18 101.474 24.268 101.474 32H105.474C105.474 24.268 111.742 18 119.474 18V14C111.742 14 105.474 7.732 105.474 0Z" fill="#00C2FF"/>
<path d="M62.2954 54.3917L67.7457 50.3925L70.1119 53.6175L64.6617 57.6167L62.2954 54.3917Z" fill="#5E92BC"/>
<path d="M72.3032 47.063L92.2952 32.388L94.6622 35.6125L74.6702 50.2875L72.3032 47.063Z" fill="#5E92BC"/>
<path d="M72.3604 30.3317L84.3586 22.333L86.5773 25.6612L74.5791 33.66L72.3604 30.3317Z" fill="#5E92BC"/>
<path d="M21.4741 46L29.4741 60L37.4741 46H21.4741Z" fill="white"/>
</svg>
