<svg width="40" height="40" viewBox="0 0 40 40" fill="none" xmlns="http://www.w3.org/2000/svg">
<ellipse cx="20" cy="20" rx="20" ry="20" fill="url(#paint0_linear)"/>
<path d="M31.15 7.98C31.0712 7.96 29.205 7.5 26.87 7.5C23.6387 7.5 21.0412 8.39125 19.3562 10.0762C17.4962 11.9362 16.0712 13.39 15.3875 14.0912C13.87 13.92 10.2912 13.8375 7.86625 16.2637C7.63125 16.4975 7.5 16.815 7.5 17.1475C7.5 17.48 7.63125 17.7975 7.86625 18.0312L22.0075 32.1725C22.2425 32.4075 22.5587 32.5387 22.8912 32.5387C23.2237 32.5387 23.5412 32.4075 23.775 32.1725C26.2175 29.7312 26.1425 26.155 25.9837 24.66L29.9637 20.6812C33.9525 16.6925 32.1387 9.20375 32.06 8.8875C31.9487 8.44125 31.5975 8.09125 31.15 7.98ZM28.1962 18.915L23.7762 23.3337C23.4812 23.6287 23.3525 24.0525 23.435 24.4625C23.4412 24.4937 23.9437 27.265 22.765 29.3925L10.6463 17.275C12.7712 16.1025 15.5725 16.645 15.5812 16.645C15.9937 16.7325 16.4362 16.6 16.735 16.2912C16.7387 16.2875 18.4925 14.475 21.125 11.8425C22.6475 10.32 25.0887 10 26.87 10C28.0537 10 29.1112 10.1387 29.785 10.2537C30.09 12.0425 30.5662 16.5437 28.1962 18.915Z" fill="white"/>
<path d="M24.6602 17.8801C26.0409 17.8801 27.1602 16.7608 27.1602 15.3801C27.1602 13.9994 26.0409 12.8801 24.6602 12.8801C23.2794 12.8801 22.1602 13.9994 22.1602 15.3801C22.1602 16.7608 23.2794 17.8801 24.6602 17.8801Z" fill="white"/>
<path d="M11.25 25C8.75 26.25 8.75 31.25 8.75 31.25C8.75 31.25 12.5 31.25 15 28.75L11.25 25Z" fill="white"/>
<defs>
<linearGradient id="paint0_linear" x1="40" y1="0" x2="2.00272e-05" y2="40" gradientUnits="userSpaceOnUse">
<stop stop-color="#5C108B"/>
<stop offset="1" stop-color="#AC007C"/>
</linearGradient>
</defs>
</svg>
