<svg width="40" height="41" viewBox="0 0 40 41" fill="none" xmlns="http://www.w3.org/2000/svg">
<ellipse cx="20" cy="20.9839" rx="20" ry="19.9946" fill="url(#paint0_linear)"/>
<ellipse cx="20" cy="20.9946" rx="20" ry="19.9946" fill="url(#paint1_linear)"/>
<path d="M18.7499 29.4818V30.9926H16.2499V33.4919H18.7499H21.2499H23.7499V30.9926H21.2499V28.687C22.6424 28.0809 23.9511 27.2199 25.0886 26.0827C29.9611 21.2115 29.9611 13.2824 25.0886 8.40869L23.3211 10.1757C27.2199 14.0747 27.2199 20.4167 23.3211 24.3144C19.4224 28.2109 13.0774 28.2134 9.17863 24.3144L7.41113 26.0814C9.84863 28.517 13.0486 29.7355 16.2499 29.7355C17.0874 29.7367 17.9249 29.6492 18.7499 29.4818Z" fill="white"/>
<path d="M8.75 17.2457C8.75 21.3808 12.1137 24.7436 16.25 24.7436C20.3862 24.7436 23.75 21.3808 23.75 17.2457C23.75 13.1105 20.3862 9.74768 16.25 9.74768C12.1137 9.74768 8.75 13.1105 8.75 17.2457ZM21.25 17.2457C21.25 20.0024 19.0075 22.2443 16.25 22.2443C13.4925 22.2443 11.25 20.0024 11.25 17.2457C11.25 14.4889 13.4925 12.247 16.25 12.247C19.0075 12.247 21.25 14.4889 21.25 17.2457Z" fill="white"/>
<defs>
<linearGradient id="paint0_linear" x1="40" y1="0.989258" x2="0.0107598" y2="40.9893" gradientUnits="userSpaceOnUse">
<stop stop-color="#FF4D00"/>
<stop offset="1" stop-color="#FFCF52"/>
</linearGradient>
<linearGradient id="paint1_linear" x1="40" y1="1" x2="0.0107446" y2="41" gradientUnits="userSpaceOnUse">
<stop stop-color="#015C9E"/>
<stop offset="1" stop-color="#00C2FF"/>
</linearGradient>
</defs>
</svg>
