<svg width="40" height="41" viewBox="0 0 40 41" fill="none" xmlns="http://www.w3.org/2000/svg">
<circle cx="20" cy="20.9893" r="20" fill="url(#paint0_linear)"/>
<path d="M28.75 8.51245H12.5C10.9925 8.51245 8.75 9.5112 8.75 12.2625V16.0125V23.5125V27.2625V29.7625C8.75 32.5137 10.9925 33.5125 12.5 33.5125H31.25V31.0125H12.515C11.9375 30.9975 11.25 30.7687 11.25 29.7625C11.25 29.6362 11.2613 29.5237 11.28 29.4212C11.42 28.7024 12.0088 28.525 12.5138 28.5125H30C30.0225 28.5125 30.0387 28.5012 30.0612 28.5H31.25V27.2625V24.75V11.0125C31.25 9.6337 30.1287 8.51245 28.75 8.51245ZM28.75 26.0125H11.25V23.5125V16.0125V12.2625C11.25 11.255 11.9375 11.0275 12.5 11.0125H21.25V19.7625L23.75 18.5125L26.25 19.7625V11.0125H28.75V24.75V26.0125Z" fill="white"/>
<defs>
<linearGradient id="paint0_linear" x1="40" y1="0.989258" x2="4.76837e-06" y2="40.9893" gradientUnits="userSpaceOnUse">
<stop stop-color="#FF4D00"/>
<stop offset="1" stop-color="#FFCF52"/>
</linearGradient>
</defs>
</svg>
