<svg width="201" height="97" viewBox="0 0 201 97" fill="none" xmlns="http://www.w3.org/2000/svg">
<ellipse cx="42.5" cy="77.5" rx="40.5" ry="19.5" fill="#108B8B" fill-opacity="0.4"/>
<ellipse cx="169.5" cy="62" rx="27.5" ry="15" fill="#14D3D3" fill-opacity="0.4"/>
<path d="M40.446 77.2578C41.0622 77.697 41.7812 77.9166 42.5001 77.9166C43.2191 77.9166 43.9381 77.697 44.5543 77.2578C45.631 76.4964 70.9362 58.2249 70.8335 35.4166C70.8335 19.7943 58.1224 7.08325 42.5001 7.08325C26.8779 7.08325 14.1668 19.7943 14.1668 35.3989C14.0641 58.2249 39.3693 76.4964 40.446 77.2578ZM42.5001 14.1666C54.2195 14.1666 63.7501 23.6972 63.7501 35.4343C63.8245 51.1522 48.2093 65.2658 42.5001 69.8947C36.7945 65.2622 21.1758 51.1451 21.2501 35.4166C21.2501 23.6972 30.7808 14.1666 42.5001 14.1666Z" fill="#108B8B"/>
<path d="M47.8682 40.71H37.4033L35.2139 47H30.334L40.5391 19.9844H44.751L54.9746 47H50.0762L47.8682 40.71ZM38.7207 36.9248H46.5508L42.6357 25.7178L38.7207 36.9248Z" fill="#108B8B"/>
<path d="M167.978 64.2617C168.434 64.5872 168.967 64.75 169.5 64.75C170.033 64.75 170.566 64.5872 171.023 64.2617C171.821 63.6974 190.576 50.155 190.5 33.25C190.5 21.6711 181.079 12.25 169.5 12.25C157.921 12.25 148.5 21.6711 148.5 33.2369C148.424 50.155 167.18 63.6974 167.978 64.2617ZM169.5 17.5C178.186 17.5 185.25 24.5639 185.25 33.2631C185.305 44.9129 173.732 55.3735 169.5 58.8044C165.271 55.3709 153.695 44.9076 153.75 33.25C153.75 24.5639 160.814 17.5 169.5 17.5Z" fill="#14D3D3"/>
<path d="M163.734 42V24.9375H169.582C171.512 24.9375 172.98 25.3242 173.988 26.0977C174.996 26.8711 175.5 28.0234 175.5 29.5547C175.5 30.3359 175.289 31.0391 174.867 31.6641C174.445 32.2891 173.828 32.7734 173.016 33.1172C173.938 33.3672 174.648 33.8398 175.148 34.5352C175.656 35.2227 175.91 36.0508 175.91 37.0195C175.91 38.6211 175.395 39.8516 174.363 40.7109C173.34 41.5703 171.871 42 169.957 42H163.734ZM166.699 34.3008V39.6328H169.992C170.922 39.6328 171.648 39.4023 172.172 38.9414C172.695 38.4805 172.957 37.8398 172.957 37.0195C172.957 35.2461 172.051 34.3398 170.238 34.3008H166.699ZM166.699 32.1211H169.605C170.527 32.1211 171.246 31.9141 171.762 31.5C172.285 31.0781 172.547 30.4844 172.547 29.7188C172.547 28.875 172.305 28.2656 171.82 27.8906C171.344 27.5156 170.598 27.3281 169.582 27.3281H166.699V32.1211Z" fill="#14D3D3"/>
</svg>
