<svg width="33" height="32" viewBox="0 0 33 32" fill="none" xmlns="http://www.w3.org/2000/svg">
<path d="M0.336615 11.05C0.298282 11.735 0.681615 12.3733 1.30495 12.66L13.8116 18.3967L19.5483 30.9017C19.8216 31.495 20.4149 31.8733 21.0633 31.8733C21.0949 31.8733 21.1249 31.8717 21.1583 31.87C21.8416 31.8333 22.4333 31.3783 22.6483 30.7267L31.9733 2.34C32.1683 1.74333 32.0116 1.085 31.5683 0.639996C31.1249 0.194996 30.4683 0.0433295 29.8683 0.234996L1.47995 9.56C0.828282 9.775 0.373282 10.3667 0.336615 11.05ZM27.7766 4.43166L20.8066 25.6483L16.5833 16.445C16.4149 16.0817 16.1266 15.79 15.7633 15.625L6.55662 11.4017L27.7766 4.43166Z" fill="white"/>
</svg>
