<svg id="Layer_1" enable-background="new 0 0 480 480" height="512" viewBox="0 0 480 480" width="512" xmlns="http://www.w3.org/2000/svg"><path d="m472 385c0 17.67-14.33 32-32 32h-400c-17.67 0-32-14.33-32-32v-290c0-17.67 14.33-32 32-32h400c17.67 0 32 14.33 32 32z" fill="#d6f4fc"/><path d="m440.107 113h-110c-150.281 0-272.107 121.826-272.107 272.107 0 31.537-47.051 34.202-49.871 2.791-.201-2.244-.129-293.909-.129-292.898 0-17.673 14.327-32 32-32h400c34.366 0 32.651 50 .107 50z" fill="#e8f8fc"/><path d="m168 151v52c0 13.25-10.75 24-24 24h-52c-13.25 0-24-10.75-24-24v-52c0-13.25 10.75-24 24-24h52c13.25 0 24 10.75 24 24z" fill="#ffec8f"/><path d="m168 166.54v36.46c0 13.25-10.75 24-24 24h-35.37c16.52-23.11 36.58-43.53 59.37-60.46z" fill="#ffe773"/><path d="m464 329v-234c0-13.233-10.767-24-24-24h-400c-13.233 0-24 10.767-24 24v290c0 13.233 10.767 24 24 24h400c13.233 0 24-10.767 24-24 0-4.418 3.582-8 8-8s8 3.582 8 8c0 22.056-17.944 40-40 40h-400c-22.056 0-40-17.944-40-40v-290c0-22.056 17.944-40 40-40h400c22.056 0 40 17.944 40 40v234c0 4.418-3.582 8-8 8s-8-3.582-8-8zm-372-194h42c4.418 0 8-3.582 8-8s-3.582-8-8-8h-42c-17.645 0-32 14.355-32 32v52c0 17.645 14.355 32 32 32h52c17.645 0 32-14.355 32-32v-52c0-4.418-3.582-8-8-8s-8 3.582-8 8v52c0 8.822-7.178 16-16 16h-52c-8.822 0-16-7.178-16-16v-52c0-8.822 7.178-16 16-16zm235.345 81.295c0-8.291 6.707-15 14.999-15 8.29 0 15 6.706 15 15 0 8.279-6.691 15-15 15-8.293 0-14.999-6.708-14.999-15zm51.768-25.455c3.125-3.124 3.125-8.189.001-11.313-20.322-20.324-53.214-20.325-73.54-.001-3.124 3.125-3.124 8.189 0 11.314 3.125 3.123 8.189 3.123 11.314 0 14.069-14.069 36.84-14.072 50.911-.001 3.125 3.124 8.19 3.125 11.314.001zm29.7-29.698c3.124-3.124 3.124-8.189 0-11.314-36.74-36.738-96.195-36.739-132.937 0-3.124 3.125-3.124 8.19 0 11.314 3.125 3.123 8.189 3.123 11.314 0 30.48-30.484 79.823-30.489 110.308 0 3.126 3.124 8.189 3.123 11.315 0zm-165.813 130.858c0-4.418-3.582-8-8-8h-167c-4.418 0-8 3.582-8 8s3.582 8 8 8h167c4.418 0 8-3.582 8-8zm53-8h-20c-4.418 0-8 3.582-8 8s3.582 8 8 8h20c4.418 0 8-3.582 8-8s-3.582-8-8-8zm39 16h19c4.418 0 8-3.582 8-8s-3.582-8-8-8h-19c-4.418 0-8 3.582-8 8s3.582 8 8 8zm-267 39c-4.418 0-8 3.582-8 8s3.582 8 8 8h70c4.418 0 8-3.582 8-8s-3.582-8-8-8zm103 0c-4.418 0-8 3.582-8 8s3.582 8 8 8h5c4.418 0 8-3.582 8-8s-3.582-8-8-8z"/></svg>