<svg width="20" height="20" viewBox="0 0 20 20" fill="none" xmlns="http://www.w3.org/2000/svg">
<path d="M1.71657 12.2308C1.77324 12.4442 1.9124 12.6267 2.10407 12.7367L3.69574 13.6567V15.4892C3.69574 15.9492 4.06824 16.3225 4.52907 16.3225H6.36157L7.28157 17.9142C7.3924 18.105 7.5749 18.245 7.78824 18.3025C7.85907 18.3208 7.93074 18.3308 8.00324 18.3308C8.14824 18.3308 8.2924 18.2934 8.42074 18.2192L10.0107 17.2992L11.6024 18.2192C11.7932 18.33 12.0216 18.3592 12.2349 18.3025C12.4482 18.2458 12.6307 18.1059 12.7407 17.9142L13.6599 16.3233H15.4924C15.9532 16.3233 16.3257 15.95 16.3257 15.49V13.6575L17.9174 12.7375C18.3157 12.5075 18.4524 11.9975 18.2216 11.5992L17.3016 10.0083L18.2216 8.41835C18.4516 8.02001 18.3149 7.51001 17.9174 7.28001L16.3257 6.36001V4.52668C16.3257 4.06668 15.9532 3.69335 15.4924 3.69335H13.6599L12.7407 2.10251C12.6299 1.91085 12.4474 1.77168 12.2349 1.71418C12.0216 1.65585 11.7941 1.68668 11.6024 1.79751L10.0107 2.71751L8.4199 1.79751C8.02157 1.56585 7.51157 1.70335 7.28157 2.10168L6.36157 3.69335H4.52907C4.06824 3.69335 3.69574 4.06668 3.69574 4.52668V6.35918L2.10407 7.27918C1.9124 7.39001 1.77324 7.57251 1.71657 7.78585C1.65907 7.99918 1.68907 8.22668 1.7999 8.41835L2.7199 10.0083L1.7999 11.5983C1.68907 11.79 1.65907 12.0175 1.71657 12.2308ZM4.40324 9.59085L3.6599 8.30501L4.94657 7.56085C5.20407 7.41168 5.3624 7.13668 5.3624 6.83918V5.36001H6.8424C7.1399 5.36001 7.41574 5.20168 7.56407 4.94335L8.3074 3.65751L9.59407 4.40085C9.85157 4.55001 10.1699 4.55001 10.4274 4.40085L11.7149 3.65751L12.4574 4.94335C12.6066 5.20168 12.8816 5.36001 13.1791 5.36001H14.6591V6.84001C14.6591 7.13751 14.8174 7.41251 15.0749 7.56168L16.3616 8.30585L15.6174 9.59168C15.4682 9.85001 15.4682 10.1675 15.6174 10.4258L16.3616 11.7117L15.0749 12.4558C14.8174 12.605 14.6591 12.88 14.6591 13.1775V14.6575H13.1791C12.8816 14.6575 12.6057 14.8158 12.4574 15.0742L11.7149 16.36L10.4274 15.6158C10.2991 15.5417 10.1549 15.5042 10.0107 15.5042C9.86657 15.5042 9.7224 15.5417 9.59324 15.6158L8.3074 16.36L7.56407 15.0742C7.4149 14.8167 7.1399 14.6575 6.8424 14.6575H5.3624V13.1775C5.3624 12.88 5.20407 12.605 4.94657 12.4558L3.6599 11.7117L4.40407 10.4258C4.55324 10.1675 4.55324 9.84918 4.40324 9.59085Z" fill="#0094FF"/>
<circle cx="10" cy="10" r="7" fill="#0094FF"/>
<path d="M6.12713 10.1475L5.53955 10.8524L8.64201 13.437L13.5191 7.58545L12.8142 6.99786L8.52468 12.1463L6.12713 10.1475Z" fill="white"/>
</svg>
